<?xml version="1.0" encoding="utf-8"?>
<!-- Generator: Adobe Illustrator 19.0.0, SVG Export Plug-In . SVG Version: 6.00 Build 0)  -->
<svg version="1.1" id="Layer_1" xmlns="http://www.w3.org/2000/svg" xmlns:xlink="http://www.w3.org/1999/xlink" x="0px" y="0px"
	 viewBox="-501 292 50 60" style="enable-background:new -501 292 50 60;" xml:space="preserve">
<style type="text/css">
	.st0{fill:#FFFFFF;}
	.st1{fill:#5382A1;}
	.st2{fill:#E77307;}
	.st3{fill:#5C88A5;}
	.st4{fill:#E77207;}
	.st5{fill:#5B88A5;}
	.st6{fill:#5885A3;}
	.st7{fill:#5E8AA7;}
	.st8{fill:#5A87A5;}
</style>
<g id="Layer_1_2_">
	<g id="Layer_1_1_">
	</g>
</g>
<g id="Completed_Icons">
	<path class="st0" d="M-454,323.6h-14v-24.9c0-2.5-2-4.5-4.5-4.5h-21c-2.5,0-4.5,2-4.5,4.5v51h16.4l-0.1-0.2
		c0.4,0.2,0.9,0.3,1.4,0.3h26.3c1.7,0,3-1.3,3-3v-20.3C-451,324.8-452.2,323.6-454,323.6z"/>
	<g>
		<path class="st1" d="M-484,342.2h-7.2v-2.3h7.2v-4.5h-7.2v-2.3h7.2v-6.6c0-2.1,1.7-3.8,3.8-3.8h10.8v-24.1c0-1.6-1.4-3-3-3h-21
			c-1.6,0-3,1.4-3,3v49.5h12.8c-0.2-0.4-0.3-0.9-0.3-1.4L-484,342.2L-484,342.2z M-491.2,302.4h16.5v2.3h-16.5V302.4z"/>
		<path class="st1" d="M-454,325.1h-26.3c-0.9,0-1.5,0.6-1.5,1.5v20.3c0,0.9,0.6,1.5,1.5,1.5h26.3c0.9,0,1.5-0.6,1.5-1.5v-20.3
			C-452.5,325.7-453.1,325.1-454,325.1z M-455.5,326.6h1.5v1.5h-1.5V326.6z M-458.5,326.6h1.5v1.5h-1.5V326.6z M-461.5,326.6h1.5
			v1.5h-1.5V326.6z M-454,346.8h-26.3v-17.3h26.3V346.8z"/>
	</g>
</g>
<g>
	<path class="st2" d="M-467.2,331.7c-0.9-0.8-1.7-1.6-2.6-2.5c-0.3-0.3-0.6-0.7-0.8-1.1c-1-1.7-0.8-3.1,0.9-4.5c1.2-1,2.4-2,3.6-3
		c0.9-0.8,1.7-1.8,2-3c0.1-0.7,0-1.5,0-2.4c0.9,1.1,1,2.3,0.6,3.5c-0.5,1.6-1.6,2.7-2.7,3.8c-0.8,0.7-1.6,1.3-2.3,2.1
		c-1.3,1.4-1.4,2.7-0.4,4.4c0.4,0.7,0.9,1.3,1.3,2C-467.4,331.3-467.3,331.5-467.2,331.7z"/>
	<path class="st3" d="M-457.8,341.3c0.2,0.1,0.4,0.3,0.4,0.4c0,0.2-0.1,0.5-0.3,0.6c-0.7,0.3-1.5,0.7-2.2,0.9
		c-3,0.8-6.1,1.1-9.3,0.9c-2.6-0.1-5.2-0.4-7.9-0.7c-0.3,0-0.6-0.1-0.9-0.2c-0.6-0.2-0.7-0.7-0.2-1.1c1.3-0.9,2.7-1.3,4.2-1.2
		c0.1,0,0.2,0.1,0.2,0.1c-0.8,0.2-1.5,0.5-2.3,0.7c-0.2,0.1-0.3,0.3-0.5,0.5c0.2,0.1,0.3,0.3,0.5,0.3c1.5,0.3,3,0.6,4.5,0.7
		c3.6,0.2,7.2,0.1,10.8-0.4c0.8-0.1,1.6-0.4,2.3-0.6C-457.9,342.1-457.6,341.8-457.8,341.3L-457.8,341.3z"/>
	<path class="st4" d="M-465.8,332.6c0.1-0.1,0.2-0.2,0.2-0.4c0.5-0.9,0.5-1.7-0.2-2.5c-0.4-0.5-0.8-1.1-1.1-1.6
		c-0.5-1.1-0.4-2.1,0.2-3.1c1.4-2,3.6-2.8,5.9-3.4c-0.5,0.3-1,0.6-1.5,1c-0.8,0.6-1.7,1.2-2.4,1.9c-1,1-1,1.8-0.3,3
		c0.2,0.4,0.5,0.7,0.7,1c0.6,0.8,0.6,1.7,0,2.6c-0.4,0.6-1,1.1-1.6,1.6C-465.7,332.8-465.7,332.7-465.8,332.6z"/>
	<path class="st5" d="M-470.5,331.9c-1.2,0.4-2.3,0.6-3.2,1.2c0,0.1,0,0.2,0,0.2c0.4,0.1,0.7,0.3,1.1,0.3c2.5,0,5,0,7.4-0.1
		c1.4-0.1,2.9-0.3,4.4-0.5c-0.8,0.5-1.5,0.8-2.4,1c-3.6,0.6-7.3,0.7-10.9,0.3c-0.4-0.1-0.9-0.2-1.3-0.3c-0.2-0.1-0.4-0.3-0.5-0.5
		c0.2-0.2,0.3-0.4,0.5-0.5C-474.2,332.4-472.3,331.9-470.5,331.9z"/>
	<path class="st6" d="M-462.3,340.2c-3,1.1-6,1.4-9,0.5c-0.3-0.1-0.7-0.3-1-0.5c-0.5-0.3-0.4-0.7,0.1-1.1c0.3-0.2,0.6-0.3,1-0.5
		c-0.3,0.7,0.1,0.8,0.5,0.8c1.7,0.3,3.3,0.4,5,0.1c0.5-0.1,1-0.2,1.5-0.2c0.1,0,0.3,0,0.4,0C-463.4,339.6-462.9,339.9-462.3,340.2z"
		/>
	<path class="st6" d="M-472.1,335.6c-0.2,0.6-0.1,0.8,0.5,0.9c1.7,0.1,3.5,0.2,5.2,0.2c1,0,1.9-0.3,2.9-0.4c0.3,0,0.6,0.1,0.8,0.2
		c0.3,0.1,0.5,0.3,0.9,0.5c-0.9,0.2-1.7,0.4-2.6,0.5c-2.6,0.4-5.1,0.5-7.7-0.1c-0.4-0.1-0.8-0.3-1.2-0.5c-0.4-0.2-0.4-0.6-0.1-0.9
		c0.3-0.3,0.7-0.4,1.1-0.7C-472.2,335.5-472.1,335.5-472.1,335.6z"/>
	<path class="st7" d="M-473.7,344.8c1.2,0.1,2.5,0.2,3.7,0.2c3.9,0.1,7.8,0,11.7-1.1c0.8-0.2,1.6-0.7,2.4-1c-0.1,0.4-0.4,0.7-0.8,1
		c-1.1,0.7-2.4,1-3.7,1.2c-4.1,0.6-8.3,0.7-12.4,0c-0.3,0-0.6-0.2-0.9-0.2C-473.8,344.9-473.7,344.9-473.7,344.8z"/>
	<path class="st8" d="M-460,332.2c0.7-0.7,2.5-0.7,3.4,0.1c0.8,0.7,1,1.9,0.3,2.8c-0.4,0.6-1,1.1-1.7,1.5c-0.8,0.5-1.7,0.8-2.6,1.2
		c0-0.1,0-0.1-0.1-0.2c0.6-0.4,1.2-0.7,1.7-1.1c0.5-0.4,0.9-0.8,1.3-1.3c0.6-0.7,0.6-1.6,0.1-2.2c-0.5-0.7-1.3-1-2.1-0.7
		c-0.1,0-0.1,0-0.2,0C-459.9,332.2-459.9,332.2-460,332.2z"/>
	<path class="st3" d="M-457.7,341.3C-457.8,341.3-457.8,341.3-457.7,341.3C-457.8,341.3-457.8,341.3-457.7,341.3
		C-457.8,341.3-457.8,341.3-457.7,341.3C-457.8,341.3-457.7,341.3-457.7,341.3z"/>
</g>
</svg>
