<?xml version="1.0" encoding="utf-8"?>
<!-- Generator: Adobe Illustrator 19.0.0, SVG Export Plug-In . SVG Version: 6.00 Build 0)  -->
<svg version="1.1" id="Layer_1" xmlns="http://www.w3.org/2000/svg" xmlns:xlink="http://www.w3.org/1999/xlink" x="0px" y="0px"
	 viewBox="0 0 210 280" style="enable-background:new 0 0 210 280;" xml:space="preserve">
<style type="text/css">
	.st0{fill:#E77307;}
	.st1{fill:#5C88A5;}
	.st2{fill:#E77207;}
	.st3{fill:#5B88A5;}
	.st4{fill:#5885A3;}
	.st5{fill:#5E8AA7;}
	.st6{fill:#5A87A5;}
</style>
<g>
	<path class="st0" d="M103.2,151c-7.6-7.2-15-14.1-22.2-21.3c-2.7-2.7-4.8-6-6.8-9.2c-8.9-14.8-6.8-26.5,7.5-39.2
		c10.2-9,21.1-17.3,31.4-26.3c8.1-7.1,15.1-15.4,17-26.4c1.1-6.4,0.2-13.1,0.2-20.4c7.5,9.7,8.3,19.8,4.9,30.5
		c-4.3,13.5-13.5,23.5-23.7,32.7c-6.7,6-13.8,11.6-19.8,18.2c-11.1,12.4-11.8,23.6-3.3,37.9c3.6,6,7.8,11.6,11.6,17.5
		C101.3,147,102.3,149.2,103.2,151z"/>
	<path class="st1" d="M185,234.1c1.4,1.2,3.9,2.3,3.9,3.5c0,1.8-1.3,4.5-2.8,5.2c-6.2,3-12.6,6.2-19.2,8c-26.3,6.9-53.2,9.1-80.2,8
		c-22.7-0.9-45.4-3.7-68.1-5.9c-2.6-0.2-5.2-1.1-7.7-2c-5.4-2.1-6.2-6-1.7-9.3C20,233.7,32.2,230,45.7,231c0.7,0.1,1.4,0.5,1.7,0.6
		c-6.5,2-13.2,3.9-19.8,6.3c-1.6,0.6-2.6,2.6-3.9,3.9c1.4,1,2.8,2.7,4.3,3c12.9,2.2,25.8,5.3,38.8,6c31.1,1.7,62.2,1,93.1-3.8
		c6.9-1.1,13.6-3,20.3-5.1C183.8,240.8,186.4,238.4,185,234.1L185,234.1z"/>
	<path class="st2" d="M115.2,159.1c0.7-1.1,1.4-2.1,2-3.2c4.7-7.6,4.1-14.5-1.4-21.7c-3.4-4.5-6.7-9.1-9.2-14.1
		c-4.5-9.2-3.9-18.6,2.1-27c12.4-17.4,31.4-24,51-29.5c-4.3,2.7-8.8,5.2-12.8,8.2c-7.2,5.4-14.6,10.5-20.9,16.8
		c-8.9,8.8-9,15.9-2.3,26.3c2,3.1,4.1,6,6.3,9c5.2,7.4,5.6,15.1,0.3,22.2c-3.9,5.2-9,9.5-13.6,14.2
		C116.2,160,115.7,159.5,115.2,159.1z"/>
	<path class="st3" d="M74.2,152.9c-10.4,3.5-20,4.9-27.6,10.8c0,0.7,0.1,1.3,0.1,2c3.1,0.8,6.2,2.4,9.2,2.4
		c21.4,0,42.9,0.2,64.3-0.6c12.4-0.5,24.7-2.7,37.9-4.3c-6.6,4.7-13.2,7.3-20.5,8.6c-31.4,5.2-62.9,6.4-94.4,2.3
		c-3.8-0.5-7.5-1.5-11.1-2.8c-1.8-0.7-3.1-2.6-4.6-4c1.3-1.4,2.4-3.2,4-4.1C42.5,156.9,59.3,152.8,74.2,152.9z"/>
	<path class="st4" d="M145.5,224.6c-26.3,9.7-52,12.4-78.2,4.4c-3-0.9-5.9-2.5-8.3-4.3c-4-3-3.8-6.4,0.5-9.2c2.3-1.5,5-2.5,8.4-4.1
		c-3,6.1,1.1,6.8,4.4,7.3c14.3,2.2,28.8,3.1,43.2,0.8c4.3-0.7,8.5-1.4,12.8-2.1c1.1-0.2,2.4-0.3,3.3,0.2
		C136,219.7,140.2,221.9,145.5,224.6z"/>
	<path class="st4" d="M60.6,184.6c-1.8,5-1.1,7.1,4.2,7.4c15.1,0.9,30.2,1.7,45.3,1.5c8.2-0.1,16.4-2.4,24.7-3.2
		c2.4-0.2,5,0.8,7.3,1.7c2.4,1,4.6,2.6,8,4.7c-8.1,1.7-15.2,3.5-22.3,4.7c-22.2,3.6-44.4,4.7-66.5-0.4c-3.7-0.8-7.2-2.5-10.5-4.4
		c-3.2-1.9-3.6-5.1-0.6-7.5c2.9-2.3,6.3-3.8,9.5-5.7C60.1,183.8,60.4,184.2,60.6,184.6z"/>
	<path class="st5" d="M46.5,264.7c10.7,0.7,21.5,1.7,32.2,2c34,1.1,67.9-0.4,100.9-9.7c7.2-2,14-5.7,20.8-8.6
		c-0.5,3.5-3.4,6.3-6.9,8.5c-9.7,6.4-20.8,8.8-32,10.5c-35.7,5.4-71.6,6-107.4,0.4c-2.7-0.4-5.3-1.3-7.9-2
		C46.4,265.5,46.5,265.1,46.5,264.7z"/>
	<path class="st6" d="M165.4,154.8c6.1-6.4,21.7-5.9,29.2,0.9c6.9,6.3,8.6,16.2,2.5,24.3c-3.8,5-8.9,9.6-14.3,12.8
		c-7.1,4.2-15.1,6.7-22.8,10c-0.2-0.5-0.4-1-0.6-1.5c5-3.2,10.2-6.1,14.8-9.8c4.2-3.4,8.2-7.3,11.5-11.7c4.8-6.3,5-13.9,1.1-19.1
		c-4.7-6.2-11-8.3-18.6-6.2c-0.5,0.1-1,0.2-1.5,0.3C166.5,155,166.1,154.9,165.4,154.8z"/>
	<path class="st1" d="M185,234c-0.1-0.1-0.3-0.3-0.4-0.4c0.1,0,0.2,0.1,0.3,0.1C185,233.8,184.9,233.9,185,234
		C185,234.1,185,234,185,234z"/>
</g>
</svg>
