<?xml version="1.0" encoding="utf-8"?>
<!-- Generator: Adobe Illustrator 19.0.0, SVG Export Plug-In . SVG Version: 6.00 Build 0)  -->
<svg version="1.1" id="Layer_1" xmlns="http://www.w3.org/2000/svg" xmlns:xlink="http://www.w3.org/1999/xlink" x="0px" y="0px"
	 viewBox="-476 260 100 124" style="enable-background:new -476 260 100 124;" xml:space="preserve">
<style type="text/css">
	.st0{fill:#5382A1;}
	.st1{fill:#E77307;}
	.st2{fill:#27AD27;}
</style>
<g id="Cluster_server">
</g>
<g>
	<g>
		<path class="st0" d="M-409.6,291h-33c-2.3,0-4.1,1.9-4.1,4.1v80.5h41.3v-80.5C-405.4,292.9-407.4,291-409.6,291z M-411.8,367.4
			h-28.9v-4.1h28.9V367.4L-411.8,367.4z M-411.8,359.1h-28.9V355h28.9V359.1L-411.8,359.1z M-411.8,307.5h-28.9v-4.1h28.9V307.5
			L-411.8,307.5z"/>
		<g>
			<path class="st1" d="M-386.9,268.3h-33c-2.3,0-4.1,1.9-4.1,4.1v14.5h14.5c4.5,0,8.3,3.7,8.3,8.3v37.2h12.4v4.1h-12.4v4.1h12.4
				v4.1h-12.4v8.3h18.6v-80.6C-382.8,270.3-384.6,268.3-386.9,268.3z M-388.9,284.8h-28.9v-4.1h28.9V284.8L-388.9,284.8z"/>
		</g>
		<g>
			<path class="st2" d="M-451,344.8h-12.4v-4.1h12.4v-4.1h-12.4v-4.1h12.4v-37.1c0-4.5,3.7-8.3,8.3-8.3h14.5v-14.5
				c0-2.3-1.9-4.1-4.1-4.1h-33c-2.3,0-4.1,1.9-4.1,4.1V353h18.6L-451,344.8L-451,344.8z M-463.3,280.8h28.9v4.1h-28.9V280.8
				L-463.3,280.8z"/>
		</g>
	</g>
	<g id="Layer_1_1_">
	</g>
	<g id="Access_control">
	</g>
	<g id="Azure_active_directory">
	</g>
	<g id="symbols">
	</g>
</g>
</svg>
