<?xml version="1.0" encoding="utf-8"?>
<!-- Generator: Adobe Illustrator 19.0.0, SVG Export Plug-In . SVG Version: 6.00 Build 0)  -->
<svg version="1.1" id="Layer_1" xmlns="http://www.w3.org/2000/svg" xmlns:xlink="http://www.w3.org/1999/xlink" x="0px" y="0px"
	 viewBox="-490 286 72 72" style="enable-background:new -490 286 72 72;" xml:space="preserve">
<style type="text/css">
	.st0{fill:#FFFFFF;}
	.st1{fill:#7B5CFF;}
	.st2{fill:#23ED00;}
</style>
<g id="Layer_1_1_">
</g>
<g id="Completed_Icons">
	<g>
		<path class="st0" d="M-425,344h-58.5c-2.8,0-5-2.2-5-5v-34.1c0-2.8,2.2-5,5-5h58.5c2.8,0,5,2.2,5,5V339
			C-420,341.8-422.3,344-425,344z"/>
	</g>
	<g>
		<path class="st1" d="M-425,301.4h-58.5c-1.9,0-3.5,1.6-3.5,3.5V339c0,1.9,1.6,3.5,3.5,3.5h58.5c1.9,0,3.5-1.6,3.5-3.5v-34.1
			C-421.5,303-423.1,301.4-425,301.4z M-452.3,340.8h-3.9V339h3.9V340.8z M-425.9,338.1h-56.8v-32.3h56.8V338.1z"/>
		<path class="st2" d="M-450.9,335.3C-450.9,335.3-451,335.3-450.9,335.3c-0.8,0-1.5-0.5-1.8-1.2l-8.3-18.3l-5.5,12.4
			c-0.3,0.7-1,1.2-1.8,1.2h-11v-4h9.7l6.7-15.3c0.3-0.7,1-1.2,1.8-1.2l0,0c0.8,0,1.5,0.5,1.8,1.2l8.5,18.8l6-11c0.4-0.6,1-1,1.8-1
			h14.1v4h-12.9l-7.4,13.5C-449.5,334.8-450.2,335.3-450.9,335.3z"/>
	</g>
</g>
</svg>
