<?xml version="1.0" encoding="utf-8"?>
<!-- Generator: Adobe Illustrator 19.0.0, SVG Export Plug-In . SVG Version: 6.00 Build 0)  -->
<svg version="1.1" id="Layer_1" xmlns="http://www.w3.org/2000/svg" xmlns:xlink="http://www.w3.org/1999/xlink" x="0px" y="0px"
	 viewBox="302 357 80 80" style="enable-background:new 302 357 80 80;" xml:space="preserve">
<style type="text/css">
	.st0{fill:#FFFFFF;}
	.st1{fill:#00C621;}
	.st2{fill:#5350DD;}
</style>
<g id="Layer_1_1_">
</g>
<g id="Completed_Icons">
	<path class="st0" d="M343.8,425.8h35.7l-0.2-1.7c-0.3-2.8-1-7.9-1.5-10.3c-0.6-2.8-1.5-4.6-4-6c-0.5-0.3-0.9-0.5-1.3-0.7
		c-1.4-0.8-2.3-1.3-3.2-1.3c-0.6,0-1.2,0.2-1.7,0.5l-0.2,0.2c-0.3,0.3-0.7,0.6-1.2,0.8c0,0,4.8-3.8,4.8-9.5c0-4.1-2.3-7.7-5.5-9.3
		v-13.4c0-2.4-2-4.5-4.4-4.5h-51.9c-2.4,0-4.4,2.1-4.4,4.5v31.5c0,2.4,2,4.5,4.4,4.5h18.2c0.2,1,0.4,2.2,0.1,2.7
		c-0.8,1.1-5.2,1.1-7.4,1.1c-1.8,0-3.3,1.5-3.3,3.4c0,1.8,1.5,3.3,3.3,3.3h24.2c-0.1,1-0.2,1.9-0.2,2.6L343.8,425.8z"/>
	<g>
		<path class="st1" d="M341.7,409.6h4.5c0.6-0.9,1.5-1.7,2.8-2.5l1-0.5c0.5-0.3,1-0.5,1.4-0.8H310v-30h50.3v11.1
			c0.4-0.1,0.9-0.1,1.3-0.1c0.8,0,1.7,0.1,2.4,0.3v-12c0-1.6-1.4-3-2.9-3h-51.9c-1.6,0-2.9,1.4-2.9,3v31.5c0,1.6,1.3,3,2.9,3h19.4
			c1.6,5.8,0.3,6.8-8.5,6.8c-1,0-1.8,0.8-1.8,1.9c0,1,0.8,1.8,1.8,1.8h23.6c0.2-1.4,0.3-2.8,0.5-4.1
			C340.9,415.3,340.6,413.7,341.7,409.6z"/>
		<path class="st2" d="M373.1,409.1c-2-1.1-3.1-1.9-3.8-1.9c-0.3,0-0.6,0.1-0.8,0.2c-0.4,0.4-1,0.8-1.6,1.1
			c-0.1,0.1-0.2,0.1-0.3,0.2c-0.6,0.4-1.1,0.6-1.6,0.8c-1,0.4-2.2,0.6-3.3,0.6s-2.3-0.2-3.3-0.6c-0.6-0.2-1.1-0.4-1.6-0.8
			c-0.7-0.4-1.4-0.8-1.9-1.4c-0.2-0.1-0.5-0.2-0.8-0.2c-0.8,0-1.5,0.5-3.8,1.9c-2,1.1-2.8,2.4-3.3,5c-0.5,2.3-1.2,7.6-1.3,10.2h32.4
			c-0.3-2.5-1-7.8-1.5-10.1C375.8,411.4,375.1,410.2,373.1,409.1z"/>
		<path class="st2" d="M361.6,389c-4.4,0-7.9,4-7.9,8.8s3.5,8.8,7.9,8.8s8-4,8-8.8C369.5,393,365.9,389,361.6,389z"/>
	</g>
</g>
</svg>
