<?xml version="1.0" encoding="utf-8"?>
<!-- Generator: Adobe Illustrator 19.0.0, SVG Export Plug-In . SVG Version: 6.00 Build 0)  -->
<svg version="1.1"
	 id="svg2" xmlns:cc="http://creativecommons.org/ns#" xmlns:dc="http://purl.org/dc/elements/1.1/" xmlns:inkscape="http://www.inkscape.org/namespaces/inkscape" xmlns:rdf="http://www.w3.org/1999/02/22-rdf-syntax-ns#" xmlns:svg="http://www.w3.org/2000/svg"
	 xmlns="http://www.w3.org/2000/svg" xmlns:xlink="http://www.w3.org/1999/xlink" x="0px" y="0px" viewBox="-282 374 46 46"
	 style="enable-background:new -282 374 46 46;" xml:space="preserve">
<style type="text/css">
	.st0{fill:#F95900;}
	.st1{fill:#FFFFFF;}
	.st2{display:none;}
	.st3{display:inline;}
	.st4{fill:#525252;}
</style>
<g id="g10" transform="matrix(1.25,0,0,-1.25,0,56.25)">
	<g id="g12">
		<g>
			<g id="g14">
				<g id="g20">
					<g id="g22">
						<g id="g24">
							<path id="path26" class="st0" d="M-219.9-289.1v32.9c0,0.8,0.7,1.5,1.5,1.5h13.3l11.4-11.4v-23c0-0.8-0.7-1.5-1.5-1.5h-23.3
								C-219.2-290.6-219.9-289.9-219.9-289.1z"/>
						</g>
					</g>
					<path class="st1" d="M-205-270.6h-8.7c-0.6,0-1.2-0.4-1.2-1s0.5-1,1.2-1h8.7c0.6,0,1.2,0.4,1.2,1S-204.3-270.6-205-270.6z"/>
					<path class="st1" d="M-205-274.7h-8.7c-0.6,0-1.2-0.5-1.2-1.1s0.5-1.1,1.2-1.1h8.7c0.6,0,1.2,0.5,1.2,1.1
						S-204.3-274.7-205-274.7z"/>
					<path class="st1" d="M-205-278.9h-8.7c-0.6,0-1.2-0.5-1.2-1.1s0.5-1.1,1.2-1.1h8.7c0.6,0,1.2,0.5,1.2,1.1
						S-204.3-278.9-205-278.9z"/>
					<path class="st1" d="M-200.2-266.4h-13.5c-0.6,0-1.2-0.5-1.2-1.1s0.5-1.1,1.2-1.1h13.5c0.6,0,1.2,0.5,1.2,1.1
						S-199.5-266.4-200.2-266.4z"/>
					<g id="g28" class="st2">
						
							<image style="display:inline;overflow:visible;opacity:0.6;enable-background:new    ;" width="33" height="33" xlink:href="B44B2ADE.png"  transform="matrix(0.8 0 0 -0.8 -214.05 -248.65)">
						</image>
						<g class="st3">
							<g>
								<g id="g30_9_">
									<path id="path32_12_" class="st4" d="M-205-254.6l11.4-11.4h-9.9c-0.8,0-1.5,0.7-1.5,1.5V-254.6z"/>
								</g>
							</g>
						</g>
					</g>
				</g>
			</g>
		</g>
	</g>
</g>
</svg>
