<?xml version="1.0" encoding="utf-8"?>
<!-- Generator: Adobe Illustrator 19.0.0, SVG Export Plug-In . SVG Version: 6.00 Build 0)  -->
<svg version="1.1" id="Layer_1" xmlns="http://www.w3.org/2000/svg" xmlns:xlink="http://www.w3.org/1999/xlink" x="0px" y="0px"
	 viewBox="-282 374 46 46" style="enable-background:new -282 374 46 46;" xml:space="preserve">
<style type="text/css">
	.st0{fill:#E51717;}
	.st1{fill:#FFFFFF;}
	.st2{fill:#525252;}
</style>
<g id="svg2" xmlns:cc="http://creativecommons.org/ns#" xmlns:dc="http://purl.org/dc/elements/1.1/" xmlns:inkscape="http://www.inkscape.org/namespaces/inkscape" xmlns:rdf="http://www.w3.org/1999/02/22-rdf-syntax-ns#" xmlns:svg="http://www.w3.org/2000/svg">
	<g id="g10" transform="matrix(1.25,0,0,-1.25,0,56.25)">
		<g id="g12">
			<g>
				<g id="g14">
					<g id="g20">
						<g id="g22">
							<g id="g24">
								<path id="path26" class="st0" d="M-220.7-289.3v32.9c0,0.8,0.7,1.5,1.5,1.5h13.3l11.4-11.4v-23c0-0.8-0.7-1.5-1.5-1.5h-23.3
									C-220-290.8-220.7-290.1-220.7-289.3z"/>
							</g>
						</g>
						<path class="st1" d="M-205.6-271.4h-8.7c-0.6,0-1.2-0.4-1.2-1s0.5-1,1.2-1h8.7c0.6,0,1.2,0.4,1.2,1
							C-204.5-271.8-205-271.4-205.6-271.4z"/>
						<path class="st1" d="M-205.6-275.5h-8.7c-0.6,0-1.2-0.5-1.2-1.1s0.5-1.1,1.2-1.1h8.7c0.6,0,1.2,0.5,1.2,1.1
							C-204.5-276-205-275.5-205.6-275.5z"/>
						<path class="st1" d="M-205.6-279.8h-8.7c-0.6,0-1.2-0.5-1.2-1.1s0.5-1.1,1.2-1.1h8.7c0.6,0,1.2,0.5,1.2,1.1
							S-205-279.8-205.6-279.8z"/>
						<path class="st1" d="M-200.8-267.2h-13.5c-0.6,0-1.2-0.5-1.2-1.1s0.5-1.1,1.2-1.1h13.5c0.6,0,1.2,0.5,1.2,1.1
							C-199.7-267.6-200.2-267.2-200.8-267.2z"/>
						<g id="g28">
							
								<image style="overflow:visible;opacity:0.6;enable-background:new    ;" width="33" height="33" xlink:href="B44B2ADE.png"  transform="matrix(0.8 0 0 -0.8 -214.8037 -248.909)">
							</image>
							<g>
								<g>
									<g id="g30_9_">
										<path id="path32_12_" class="st2" d="M-205.8-254.8l11.4-11.4h-9.9c-0.8,0-1.5,0.7-1.5,1.5V-254.8z"/>
									</g>
								</g>
							</g>
						</g>
					</g>
				</g>
			</g>
		</g>
	</g>
</g>
<g id="Layer_2">
	<g>
		
			<image style="overflow:visible;opacity:0.6;enable-background:new    ;" width="38" height="28" xlink:href="D60FEFC1.png"  transform="matrix(0.9704 0 0 0.9704 -270.1754 399.4426)">
		</image>
		<g>
			<path class="st1" d="M-243.3,407.2c-1.2-0.7-1.9-1.2-2.3-1.2c-0.2,0-0.4,0.1-0.5,0.1c-0.2,0.2-0.6,0.5-1,0.7
				c-0.1,0.1-0.1,0.1-0.2,0.1c-0.4,0.2-0.7,0.4-1,0.5c-0.6,0.2-1.3,0.4-2,0.4s-1.4-0.1-2-0.4c-0.4-0.1-0.7-0.2-1-0.5
				c-0.4-0.2-0.9-0.5-1.2-0.9c-0.1-0.1-0.3-0.1-0.5-0.1c-0.5,0-0.9,0.3-2.3,1.2c-1.2,0.7-1.7,1.5-2,3.1c-0.3,1.4-0.7,4.7-0.8,6.2
				h19.9c-0.2-1.5-0.6-4.8-0.9-6.2C-241.6,408.7-242,407.9-243.3,407.2z"/>
		</g>
	</g>
	<g>
		
			<image style="overflow:visible;opacity:0.6;enable-background:new    ;" width="28" height="29" xlink:href="D60FEFC2.png"  transform="matrix(0.9649 0 0 0.9649 -265.247 388.5366)">
		</image>
		<g>
			<path class="st1" d="M-250.3,394.9c-2.7,0-4.8,2.5-4.8,5.4s2.1,5.4,4.8,5.4s4.9-2.5,4.9-5.4
				C-245.5,397.4-247.7,394.9-250.3,394.9z"/>
		</g>
	</g>
</g>
</svg>
