<?xml version="1.0" encoding="UTF-8" standalone="no"?>
<svg
   xmlns:dc="http://purl.org/dc/elements/1.1/"
   xmlns:cc="http://creativecommons.org/ns#"
   xmlns:rdf="http://www.w3.org/1999/02/22-rdf-syntax-ns#"
   xmlns:svg="http://www.w3.org/2000/svg"
   xmlns="http://www.w3.org/2000/svg"
   xmlns:sodipodi="http://sodipodi.sourceforge.net/DTD/sodipodi-0.dtd"
   xmlns:inkscape="http://www.inkscape.org/namespaces/inkscape"
   sodipodi:docname="medium-logo.svg"
   inkscape:version="1.0 (4035a4fb49, 2020-05-01)"
   id="svg8"
   version="1.1"
   viewBox="0 0 280.00001 280.00001"
   height="280mm"
   width="280mm">
  <defs
     id="defs2" />
  <sodipodi:namedview
     inkscape:window-maximized="1"
     inkscape:window-y="-8"
     inkscape:window-x="-8"
     inkscape:window-height="1017"
     inkscape:window-width="1920"
     showgrid="false"
     inkscape:document-rotation="0"
     inkscape:current-layer="g861"
     inkscape:document-units="mm"
     inkscape:cy="602.90261"
     inkscape:cx="1452.3784"
     inkscape:zoom="0.175"
     inkscape:pageshadow="2"
     inkscape:pageopacity="0.0"
     borderopacity="1.0"
     bordercolor="#666666"
     pagecolor="#ffffff"
     id="base" />
  <metadata
     id="metadata5">
    <rdf:RDF>
      <cc:Work
         rdf:about="">
        <dc:format>image/svg+xml</dc:format>
        <dc:type
           rdf:resource="http://purl.org/dc/dcmitype/StillImage" />
        <dc:title></dc:title>
      </cc:Work>
    </rdf:RDF>
  </metadata>
  <g
     transform="translate(456.19458,-72.073635)"
     id="layer1"
     inkscape:groupmode="layer"
     inkscape:label="Layer 1">
    <g
       transform="matrix(0.26458333,0,0,0.26458333,-457.72916,68.980656)"
       id="g861">
      <g
         transform="translate(7.0338524,232.61886)"
         id="g866">
        <path
           id="path842"
           d="m 594.79,308.2 c 0,163.76 -131.85,296.52 -294.5,296.52 C 137.64,604.72 5.8,472 5.8,308.2 5.8,144.4 137.65,11.69 300.29,11.69 c 162.64,0 294.5,132.75 294.5,296.51" />
        <path
           id="path844"
           d="m 917.86,308.2 c 0,154.16 -65.93,279.12 -147.25,279.12 -81.32,0 -147.25,-125 -147.25,-279.12 0,-154.12 65.93,-279.12 147.25,-279.12 81.32,0 147.25,125 147.25,279.12" />
        <path
           id="path846"
           d="m 1050,308.2 c 0,138.12 -23.19,250.08 -51.79,250.08 -28.6,0 -51.79,-112 -51.79,-250.08 0,-138.08 23.19,-250.08 51.8,-250.08 28.61,0 51.78,111.97 51.78,250.08" />
      </g>
    </g>
  </g>
</svg>
