<?xml version="1.0" encoding="UTF-8" standalone="no"?>
<!-- Generator: Adobe Illustrator 22.0.1, SVG Export Plug-In . SVG Version: 6.00 Build 0)  -->

<svg
   xmlns:dc="http://purl.org/dc/elements/1.1/"
   xmlns:cc="http://creativecommons.org/ns#"
   xmlns:rdf="http://www.w3.org/1999/02/22-rdf-syntax-ns#"
   xmlns:svg="http://www.w3.org/2000/svg"
   xmlns="http://www.w3.org/2000/svg"
   xmlns:sodipodi="http://sodipodi.sourceforge.net/DTD/sodipodi-0.dtd"
   xmlns:inkscape="http://www.inkscape.org/namespaces/inkscape"
   version="1.1"
   id="workspace"
   x="0px"
   y="0px"
   viewBox="0 0 748.67541 217.6194"
   xml:space="preserve"
   sodipodi:docname="brand.svg"
   inkscape:version="0.92.3 (2405546, 2018-03-11)"
   width="748.67542"
   height="217.6194"><metadata
   id="metadata149"><rdf:RDF><cc:Work
       rdf:about=""><dc:format>image/svg+xml</dc:format><dc:type
         rdf:resource="http://purl.org/dc/dcmitype/StillImage" /><dc:title></dc:title></cc:Work></rdf:RDF></metadata><defs
   id="defs147" /><sodipodi:namedview
   pagecolor="#ffffff"
   bordercolor="#666666"
   borderopacity="1"
   objecttolerance="10"
   gridtolerance="10"
   guidetolerance="10"
   inkscape:pageopacity="0"
   inkscape:pageshadow="2"
   inkscape:window-width="1920"
   inkscape:window-height="1017"
   id="namedview145"
   showgrid="false"
   inkscape:zoom="0.5959596"
   inkscape:cx="161.75448"
   inkscape:cy="-75.420737"
   inkscape:window-x="-8"
   inkscape:window-y="-8"
   inkscape:window-maximized="1"
   inkscape:current-layer="text68" />
<style
   type="text/css"
   id="style2">
	.st0{fill:url(#SVGID_1_);}
	.st1{fill:url(#SVGID_2_);}
	.st2{fill:url(#SVGID_3_);}
	.st3{fill:url(#SVGID_4_);}
	.st4{fill:#5EC68F;}
	.st5{font-family:'Ubuntu';}
	.st6{font-size:124.2179px;}
	.st7{fill:#4EBEA3;}
	.st8{fill:#46BAAB;}
	.st9{fill:#39B4BB;}
	.st10{fill:#34B1C1;}
	.st11{fill:#27ABD0;}
	.st12{fill:url(#SVGID_5_);}
	.st13{fill:url(#SVGID_6_);}
	.st14{fill:url(#SVGID_7_);}
	.st15{fill:url(#SVGID_8_);}
</style>
<g
   id="g72"
   transform="translate(-23.976996,-58.101216)">
	<g
   transform="matrix(-1.2856,0.0224,-0.0224,-1.2856,737.09,505.2043)"
   id="g15">
		<desc
   id="desc4">Created with Snap</desc>
		<g
   id="g13">
			
				<linearGradient
   id="SVGID_1_"
   gradientUnits="userSpaceOnUse"
   x1="572.65973"
   y1="-210.6198"
   x2="574.15222"
   y2="-210.6198"
   gradientTransform="matrix(-86.1403,-0.9789,-1.5009,56.1807,49427.227,12613.115)">
				<stop
   offset="0"
   style="stop-color:#74D14C;stop-opacity:0.54"
   id="stop6" />
				<stop
   offset="1"
   style="stop-color:#74D14C;stop-opacity:0.54"
   id="stop8" />
			</linearGradient>
			<path
   class="st0"
   d="m 499,187.2 c -8.4,0 -15.2,6.8 -15.2,15.2 0,13 -6.5,19.6 -19.6,19.6 -13,0 -19.6,-6.5 -19.6,-19.6 0,-8.4 -6.8,-15.2 -15.2,-15.2 -8.4,0 -15.2,6.8 -15.2,15.2 0,8.4 6.8,15.2 15.2,15.2 13,0 19.6,6.5 19.6,19.6 0,8.4 6.8,15.2 15.2,15.2 8.4,0 15.2,-6.8 15.2,-15.2 0,-13 6.5,-19.6 19.6,-19.6 8.4,0 15.2,-6.8 15.2,-15.2 0,-8.4 -6.8,-15.2 -15.2,-15.2 z"
   id="path11"
   inkscape:connector-curvature="0"
   style="fill:url(#SVGID_1_)" />
		</g>
	</g>
	<g
   transform="matrix(1.2858,0,0,1.2858,636.4971,407.9266)"
   id="g28">
		<desc
   id="desc17">Created with Snap</desc>
		<g
   id="g26">
			
				<linearGradient
   id="SVGID_2_"
   gradientUnits="userSpaceOnUse"
   x1="-499.87311"
   y1="300.83069"
   x2="-498.38062"
   y2="300.83069"
   gradientTransform="matrix(86.1537,0,0,-56.1895,42626.184,16733.103)">
				<stop
   offset="0"
   style="stop-color:#61C78C;stop-opacity:0.54"
   id="stop19" />
				<stop
   offset="1"
   style="stop-color:#61C78C;stop-opacity:0.54"
   id="stop21" />
			</linearGradient>
			<path
   class="st1"
   d="m -355,-203 c -8.4,0 -15.2,6.8 -15.2,15.2 0,13 -6.5,19.6 -19.6,19.6 -13,0 -19.6,-6.5 -19.6,-19.6 0,-8.4 -6.8,-15.2 -15.2,-15.2 -8.4,0 -15.2,6.8 -15.2,15.2 0,8.4 6.8,15.2 15.2,15.2 13,0 19.6,6.5 19.6,19.6 0,8.4 6.8,15.2 15.2,15.2 8.4,0 15.2,-6.8 15.2,-15.2 0,-13 6.5,-19.6 19.6,-19.6 8.4,0 15.2,-6.8 15.2,-15.2 0,-8.4 -6.8,-15.2 -15.2,-15.2 z"
   id="path24"
   inkscape:connector-curvature="0"
   style="fill:url(#SVGID_2_)" />
		</g>
	</g>
	<g
   transform="matrix(0.0449,1.285,-1.285,0.0449,671.3251,347.3381)"
   id="g41">
		<desc
   id="desc30">Created with Snap</desc>
		<g
   id="g39">
			
				<linearGradient
   id="SVGID_3_"
   gradientUnits="userSpaceOnUse"
   x1="319.42169"
   y1="536.00677"
   x2="320.91422"
   y2="536.00677"
   gradientTransform="matrix(3.0085,-56.1545,-86.1001,-1.9621,44948.594,19453.187)">
				<stop
   offset="0"
   style="stop-color:#33B5CC;stop-opacity:0.53"
   id="stop32" />
				<stop
   offset="1"
   style="stop-color:#33B5CC;stop-opacity:0.53"
   id="stop34" />
			</linearGradient>
			<path
   class="st2"
   d="m -155.9,431.9 c -8.4,0 -15.2,6.8 -15.2,15.2 0,13 -6.5,19.6 -19.6,19.6 -13,0 -19.6,-6.5 -19.6,-19.6 0,-8.4 -6.8,-15.2 -15.2,-15.2 -8.4,0 -15.2,6.8 -15.2,15.2 0,8.4 6.8,15.2 15.2,15.2 13,0 19.6,6.5 19.6,19.6 0,8.4 6.8,15.2 15.2,15.2 8.4,0 15.2,-6.8 15.2,-15.2 0,-13 6.5,-19.6 19.6,-19.6 8.4,0 15.2,-6.8 15.2,-15.2 0,-8.4 -6.8,-15.2 -15.2,-15.2 z"
   id="path37"
   inkscape:connector-curvature="0"
   style="fill:url(#SVGID_3_)" />
		</g>
	</g>
	<g
   transform="matrix(0,1.2858,-1.2858,0,675.0734,407.4971)"
   id="g54">
		<desc
   id="desc43">Created with Snap</desc>
		<g
   id="g52">
			
				<linearGradient
   id="SVGID_4_"
   gradientUnits="userSpaceOnUse"
   x1="290.8558"
   y1="527.21942"
   x2="292.3483"
   y2="527.21942"
   gradientTransform="matrix(0,-56.1895,-86.1537,0,45218.984,16816.664)">
				<stop
   offset="0"
   style="stop-color:#5ACCC2;stop-opacity:0.53"
   id="stop45" />
				<stop
   offset="1"
   style="stop-color:#5ACCC2;stop-opacity:0.53"
   id="stop47" />
			</linearGradient>
			<path
   class="st3"
   d="m -118.2,441 c -8.4,0 -15.2,6.8 -15.2,15.2 0,13 -6.5,19.6 -19.6,19.6 -13,0 -19.6,-6.5 -19.6,-19.6 0,-8.4 -6.8,-15.2 -15.2,-15.2 -8.4,0 -15.2,6.8 -15.2,15.2 0,8.4 6.8,15.2 15.2,15.2 13,0 19.6,6.5 19.6,19.6 0,8.4 6.8,15.2 15.2,15.2 8.4,0 15.2,-6.8 15.2,-15.2 0,-13 6.5,-19.6 19.6,-19.6 8.4,0 15.2,-6.8 15.2,-15.2 0.1,-8.4 -6.7,-15.2 -15.2,-15.2 z"
   id="path50"
   inkscape:connector-curvature="0"
   style="fill:url(#SVGID_4_)" />
		</g>
	</g>
	<g
   transform="matrix(1.2818698,0,0,1.2818698,1199.4887,446.46911)"
   id="g70">
		<g
   aria-label="wl-opc"
   transform="matrix(1.1867,0,0,1.1867,-771.2004,-168.4891)"
   style=""
   id="text68"><path
     d="m 62.730041,0 q -3.478101,-8.943689 -7.453074,-20.371736 -3.850755,-11.552265 -7.080421,-23.974055 -3.229665,12.42179 -7.08042,23.974055 Q 37.265371,-8.943689 33.78727,0 H 23.725619 Q 18.011596,-12.794444 12.546008,-29.191207 7.0804205,-45.58797 2.2359223,-64.59331 H 14.657713 q 1.242179,5.838242 2.981229,12.670226 1.739051,6.831985 3.602319,13.66397 1.987487,6.831985 4.099191,13.167098 2.111705,6.335113 3.974973,11.055393 2.111704,-5.838242 4.099191,-12.297572 2.111704,-6.583549 3.974973,-13.167098 1.863268,-6.707767 3.478101,-13.04288 1.739051,-6.459331 2.98123,-12.049137 h 9.564778 q 1.117961,5.589806 2.732794,12.049137 1.614833,6.335113 3.478102,13.04288 1.863268,6.583549 3.850755,13.167098 2.111704,6.45933 4.223408,12.297572 1.863269,-4.72028 3.850755,-11.055393 2.111705,-6.335113 4.099191,-13.167098 1.987486,-6.831985 3.726537,-13.66397 1.739051,-6.831984 2.98123,-12.670226 H 94.281388 Q 89.43689,-45.58797 83.971303,-29.191207 78.505715,-12.794444 72.791691,0 Z"
     style="font-size:124.21790314px;font-family:Ubuntu;fill:#5ec68f"
     id="path9550" /><path
     d="M 125.81543,1.242179 Q 115.13269,0.99374323 110.66084,-3.3538834 106.189,-7.70151 106.189,-16.893635 v -77.511971 l 11.55226,-1.987487 v 77.63619 q 0,2.857011 0.49687,4.72028 0.49687,1.863268 1.61484,2.98123 1.11796,1.1179607 2.98123,1.7390503 1.86326,0.4968716 4.59606,0.8695253 z"
     style="font-size:124.21790314px;font-family:Ubuntu;fill:#4ebea3"
     id="path9552" /><path
     d="m 133.62966,-42.606741 h 30.68182 v 10.806958 h -30.68182 z"
     style="font-size:124.21790314px;font-family:Ubuntu;fill:#46baab"
     id="path9554" /><path
     d="m 234.55346,-32.296655 q 0,7.70151 -2.23593,13.912405 -2.23592,6.210895 -6.33511,10.68274 -3.97497,4.4718445 -9.56478,6.95620258 -5.5898,2.36014012 -12.17335,2.36014012 -6.58355,0 -12.17336,-2.36014012 -5.5898,-2.48435808 -9.68899,-6.95620258 -3.97498,-4.471845 -6.2109,-10.68274 -2.23592,-6.210895 -2.23592,-13.912405 0,-7.577292 2.23592,-13.788187 2.23592,-6.335113 6.2109,-10.806958 4.09919,-4.471844 9.68899,-6.831984 5.58981,-2.484358 12.17336,-2.484358 6.58355,0 12.17335,2.484358 5.58981,2.36014 9.56478,6.831984 4.09919,4.471845 6.33511,10.806958 2.23593,6.210895 2.23593,13.788187 z m -12.04914,0 q 0,-10.931175 -4.96872,-17.266288 -4.8445,-6.459331 -13.29131,-6.459331 -8.44682,0 -13.41554,6.459331 -4.84449,6.335113 -4.84449,17.266288 0,10.931176 4.84449,17.390507 4.96872,6.3351127 13.41554,6.3351127 8.44681,0 13.29131,-6.3351127 4.96872,-6.459331 4.96872,-17.390507 z"
     style="font-size:124.21790314px;font-family:Ubuntu;fill:#39b4bb"
     id="path9556" /><path
     d="m 295.68009,-32.172437 q 0,-11.303829 -5.58981,-17.390506 -5.5898,-6.086678 -14.90614,-6.086678 -5.21716,0 -8.19839,0.372654 -2.85701,0.372654 -4.59606,0.869525 v 40.743473 q 2.11171,1.73905 6.08668,3.353883 3.97497,1.6148328 8.69525,1.6148328 4.96872,0 8.44682,-1.7390508 3.60232,-1.863268 5.83824,-4.968716 2.23592,-3.229665 3.22967,-7.453074 0.99374,-4.347627 0.99374,-9.316343 z m 12.04914,0 q 0,7.328856 -1.98749,13.539752 -1.86327,6.210895 -5.58981,10.6827392 -3.72653,4.4718445 -9.19212,6.95620257 -5.34137,2.48435803 -12.29757,2.48435803 -5.58981,0 -9.93744,-1.4906148 -4.2234,-1.4906148 -6.33511,-2.8570118 V 22.980312 h -11.55226 v -85.586135 q 4.09919,-0.993743 10.18586,-2.111705 6.2109,-1.242179 14.28506,-1.242179 7.45308,0 13.41554,2.360141 5.96246,2.36014 10.18586,6.707766 4.22341,4.347627 6.45934,10.68274 2.36014,6.210895 2.36014,14.036623 z"
     style="font-size:124.21790314px;font-family:Ubuntu;fill:#34b1c1"
     id="path9558" /><path
     d="m 352.01068,1.4906148 q -7.82573,0 -13.78819,-2.48435803 -5.83824,-2.48435807 -9.93743,-6.95620257 -3.97497,-4.4718442 -5.96246,-10.5585222 -1.98749,-6.210895 -1.98749,-13.663969 0,-7.453074 2.11171,-13.663969 2.23592,-6.210895 6.21089,-10.68274 3.97498,-4.596062 9.689,-7.08042 5.83824,-2.608576 12.91866,-2.608576 4.34763,0 8.69525,0.745307 4.34763,0.745307 8.3226,2.36014 l -2.60857,9.813215 q -2.60858,-1.242179 -6.08668,-1.987487 -3.35388,-0.745307 -7.20464,-0.745307 -9.68899,0 -14.90615,6.086677 -5.09293,6.086677 -5.09293,17.76316 0,5.217152 1.11796,9.564779 1.24218,4.347626 3.72654,7.453074 2.60857,3.105447 6.58355,4.844498 3.97497,1.6148328 9.68899,1.6148328 4.59607,0 8.3226,-0.8695253 3.72654,-0.8695255 5.83824,-1.8632685 l 1.61484,9.6889964 q -0.99375,0.6210895 -2.85701,1.24217899 Q 364.55669,0 362.19655,0.37265371 q -2.36014,0.49687161 -5.09294,0.74530739 -2.60857,0.3726537 -5.09293,0.3726537 z"
     style="font-size:124.21790314px;font-family:Ubuntu;fill:#27abd0"
     id="path9560" /></g>
	</g>
</g>

</svg>