<?xml version="1.0" encoding="UTF-8" standalone="no"?>
<svg
   xmlns:dc="http://purl.org/dc/elements/1.1/"
   xmlns:cc="http://creativecommons.org/ns#"
   xmlns:rdf="http://www.w3.org/1999/02/22-rdf-syntax-ns#"
   xmlns:svg="http://www.w3.org/2000/svg"
   xmlns="http://www.w3.org/2000/svg"
   xmlns:sodipodi="http://sodipodi.sourceforge.net/DTD/sodipodi-0.dtd"
   xmlns:inkscape="http://www.inkscape.org/namespaces/inkscape"
   sodipodi:docname="wl-opc-with-subtitle.svg"
   inkscape:version="1.0 (4035a4fb49, 2020-05-01)"
   id="svg8"
   version="1.1"
   viewBox="0 0 200 85"
   height="85mm"
   width="200mm">
  <defs
     id="defs2" />
  <sodipodi:namedview
     inkscape:window-maximized="1"
     inkscape:window-y="-8"
     inkscape:window-x="-8"
     inkscape:window-height="1017"
     inkscape:window-width="1920"
     showgrid="false"
     inkscape:document-rotation="0"
     inkscape:current-layer="text924"
     inkscape:document-units="mm"
     inkscape:cy="37.337148"
     inkscape:cx="425.63727"
     inkscape:zoom="0.7"
     inkscape:pageshadow="2"
     inkscape:pageopacity="0.0"
     borderopacity="1.0"
     bordercolor="#666666"
     pagecolor="#ffffff"
     id="base" />
  <metadata
     id="metadata5">
    <rdf:RDF>
      <cc:Work
         rdf:about="">
        <dc:format>image/svg+xml</dc:format>
        <dc:type
           rdf:resource="http://purl.org/dc/dcmitype/StillImage" />
        <dc:title></dc:title>
      </cc:Work>
    </rdf:RDF>
  </metadata>
  <g
     transform="translate(-5.1240495,-4.4726722)"
     id="layer1"
     inkscape:groupmode="layer"
     inkscape:label="Layer 1">
    <g
       id="g965">
      <g
         transform="matrix(0.26458333,0,0,0.26458333,-0.26338469,-9.8416073)"
         id="g72">
        <g
           id="g15"
           transform="matrix(-1.2856,0.0224,-0.0224,-1.2856,737.09,505.2043)">
          <desc
             id="desc4">Created with Snap</desc>
          <g
             id="g13">
            <linearGradient
               gradientTransform="matrix(-86.1403,-0.9789,-1.5009,56.1807,49427.227,12613.115)"
               y2="-210.6198"
               x2="574.15222"
               y1="-210.6198"
               x1="572.65973"
               gradientUnits="userSpaceOnUse"
               id="SVGID_1_">
              <stop
                 id="stop6"
                 style="stop-color:#74D14C;stop-opacity:0.54"
                 offset="0" />
              <stop
                 id="stop8"
                 style="stop-color:#74D14C;stop-opacity:0.54"
                 offset="1" />
            </linearGradient>
            <path
               style="fill:url(#SVGID_1_)"
               inkscape:connector-curvature="0"
               id="path11"
               d="m 499,187.2 c -8.4,0 -15.2,6.8 -15.2,15.2 0,13 -6.5,19.6 -19.6,19.6 -13,0 -19.6,-6.5 -19.6,-19.6 0,-8.4 -6.8,-15.2 -15.2,-15.2 -8.4,0 -15.2,6.8 -15.2,15.2 0,8.4 6.8,15.2 15.2,15.2 13,0 19.6,6.5 19.6,19.6 0,8.4 6.8,15.2 15.2,15.2 8.4,0 15.2,-6.8 15.2,-15.2 0,-13 6.5,-19.6 19.6,-19.6 8.4,0 15.2,-6.8 15.2,-15.2 0,-8.4 -6.8,-15.2 -15.2,-15.2 z"
               class="st0" />
          </g>
        </g>
        <g
           id="g28"
           transform="matrix(1.2858,0,0,1.2858,636.4971,407.9266)">
          <desc
             id="desc17">Created with Snap</desc>
          <g
             id="g26">
            <linearGradient
               gradientTransform="matrix(86.1537,0,0,-56.1895,42626.184,16733.103)"
               y2="300.83069"
               x2="-498.38062"
               y1="300.83069"
               x1="-499.87311"
               gradientUnits="userSpaceOnUse"
               id="SVGID_2_">
              <stop
                 id="stop19"
                 style="stop-color:#61C78C;stop-opacity:0.54"
                 offset="0" />
              <stop
                 id="stop21"
                 style="stop-color:#61C78C;stop-opacity:0.54"
                 offset="1" />
            </linearGradient>
            <path
               style="fill:url(#SVGID_2_)"
               inkscape:connector-curvature="0"
               id="path24"
               d="m -355,-203 c -8.4,0 -15.2,6.8 -15.2,15.2 0,13 -6.5,19.6 -19.6,19.6 -13,0 -19.6,-6.5 -19.6,-19.6 0,-8.4 -6.8,-15.2 -15.2,-15.2 -8.4,0 -15.2,6.8 -15.2,15.2 0,8.4 6.8,15.2 15.2,15.2 13,0 19.6,6.5 19.6,19.6 0,8.4 6.8,15.2 15.2,15.2 8.4,0 15.2,-6.8 15.2,-15.2 0,-13 6.5,-19.6 19.6,-19.6 8.4,0 15.2,-6.8 15.2,-15.2 0,-8.4 -6.8,-15.2 -15.2,-15.2 z"
               class="st1" />
          </g>
        </g>
        <g
           id="g41"
           transform="matrix(0.0449,1.285,-1.285,0.0449,671.3251,347.3381)">
          <desc
             id="desc30">Created with Snap</desc>
          <g
             id="g39">
            <linearGradient
               gradientTransform="matrix(3.0085,-56.1545,-86.1001,-1.9621,44948.594,19453.187)"
               y2="536.00677"
               x2="320.91422"
               y1="536.00677"
               x1="319.42169"
               gradientUnits="userSpaceOnUse"
               id="SVGID_3_">
              <stop
                 id="stop32"
                 style="stop-color:#33B5CC;stop-opacity:0.53"
                 offset="0" />
              <stop
                 id="stop34"
                 style="stop-color:#33B5CC;stop-opacity:0.53"
                 offset="1" />
            </linearGradient>
            <path
               style="fill:url(#SVGID_3_)"
               inkscape:connector-curvature="0"
               id="path37"
               d="m -155.9,431.9 c -8.4,0 -15.2,6.8 -15.2,15.2 0,13 -6.5,19.6 -19.6,19.6 -13,0 -19.6,-6.5 -19.6,-19.6 0,-8.4 -6.8,-15.2 -15.2,-15.2 -8.4,0 -15.2,6.8 -15.2,15.2 0,8.4 6.8,15.2 15.2,15.2 13,0 19.6,6.5 19.6,19.6 0,8.4 6.8,15.2 15.2,15.2 8.4,0 15.2,-6.8 15.2,-15.2 0,-13 6.5,-19.6 19.6,-19.6 8.4,0 15.2,-6.8 15.2,-15.2 0,-8.4 -6.8,-15.2 -15.2,-15.2 z"
               class="st2" />
          </g>
        </g>
        <g
           id="g54"
           transform="matrix(0,1.2858,-1.2858,0,675.0734,407.4971)">
          <desc
             id="desc43">Created with Snap</desc>
          <g
             id="g52">
            <linearGradient
               gradientTransform="matrix(0,-56.1895,-86.1537,0,45218.984,16816.664)"
               y2="527.21942"
               x2="292.3483"
               y1="527.21942"
               x1="290.8558"
               gradientUnits="userSpaceOnUse"
               id="SVGID_4_">
              <stop
                 id="stop45"
                 style="stop-color:#5ACCC2;stop-opacity:0.53"
                 offset="0" />
              <stop
                 id="stop47"
                 style="stop-color:#5ACCC2;stop-opacity:0.53"
                 offset="1" />
            </linearGradient>
            <path
               style="fill:url(#SVGID_4_)"
               inkscape:connector-curvature="0"
               id="path50"
               d="m -118.2,441 c -8.4,0 -15.2,6.8 -15.2,15.2 0,13 -6.5,19.6 -19.6,19.6 -13,0 -19.6,-6.5 -19.6,-19.6 0,-8.4 -6.8,-15.2 -15.2,-15.2 -8.4,0 -15.2,6.8 -15.2,15.2 0,8.4 6.8,15.2 15.2,15.2 13,0 19.6,6.5 19.6,19.6 0,8.4 6.8,15.2 15.2,15.2 8.4,0 15.2,-6.8 15.2,-15.2 0,-13 6.5,-19.6 19.6,-19.6 8.4,0 15.2,-6.8 15.2,-15.2 0.1,-8.4 -6.7,-15.2 -15.2,-15.2 z"
               class="st3" />
          </g>
        </g>
        <g
           id="g70"
           transform="matrix(1.2818698,0,0,1.2818698,1199.4887,446.46911)">
          <g
             id="text68"
             transform="matrix(1.1867,0,0,1.1867,-771.2004,-168.4891)"
             aria-label="wl-opc">
            <path
               id="path9550"
               style="font-size:124.218px;font-family:Ubuntu;fill:#5ec68f"
               d="m 62.730041,0 q -3.478101,-8.943689 -7.453074,-20.371736 -3.850755,-11.552265 -7.080421,-23.974055 -3.229665,12.42179 -7.08042,23.974055 Q 37.265371,-8.943689 33.78727,0 H 23.725619 Q 18.011596,-12.794444 12.546008,-29.191207 7.0804205,-45.58797 2.2359223,-64.59331 H 14.657713 q 1.242179,5.838242 2.981229,12.670226 1.739051,6.831985 3.602319,13.66397 1.987487,6.831985 4.099191,13.167098 2.111705,6.335113 3.974973,11.055393 2.111704,-5.838242 4.099191,-12.297572 2.111704,-6.583549 3.974973,-13.167098 1.863268,-6.707767 3.478101,-13.04288 1.739051,-6.459331 2.98123,-12.049137 h 9.564778 q 1.117961,5.589806 2.732794,12.049137 1.614833,6.335113 3.478102,13.04288 1.863268,6.583549 3.850755,13.167098 2.111704,6.45933 4.223408,12.297572 1.863269,-4.72028 3.850755,-11.055393 2.111705,-6.335113 4.099191,-13.167098 1.987486,-6.831985 3.726537,-13.66397 1.739051,-6.831984 2.98123,-12.670226 H 94.281388 Q 89.43689,-45.58797 83.971303,-29.191207 78.505715,-12.794444 72.791691,0 Z" />
            <path
               id="path9552"
               style="font-size:124.218px;font-family:Ubuntu;fill:#4ebea3"
               d="M 125.81543,1.242179 Q 115.13269,0.99374323 110.66084,-3.3538834 106.189,-7.70151 106.189,-16.893635 v -77.511971 l 11.55226,-1.987487 v 77.63619 q 0,2.857011 0.49687,4.72028 0.49687,1.863268 1.61484,2.98123 1.11796,1.1179607 2.98123,1.7390503 1.86326,0.4968716 4.59606,0.8695253 z" />
            <path
               id="path9554"
               style="font-size:124.218px;font-family:Ubuntu;fill:#46baab"
               d="m 133.62966,-42.606741 h 30.68182 v 10.806958 h -30.68182 z" />
            <path
               id="path9556"
               style="font-size:124.218px;font-family:Ubuntu;fill:#39b4bb"
               d="m 234.55346,-32.296655 q 0,7.70151 -2.23593,13.912405 -2.23592,6.210895 -6.33511,10.68274 -3.97497,4.4718445 -9.56478,6.95620258 -5.5898,2.36014012 -12.17335,2.36014012 -6.58355,0 -12.17336,-2.36014012 -5.5898,-2.48435808 -9.68899,-6.95620258 -3.97498,-4.471845 -6.2109,-10.68274 -2.23592,-6.210895 -2.23592,-13.912405 0,-7.577292 2.23592,-13.788187 2.23592,-6.335113 6.2109,-10.806958 4.09919,-4.471844 9.68899,-6.831984 5.58981,-2.484358 12.17336,-2.484358 6.58355,0 12.17335,2.484358 5.58981,2.36014 9.56478,6.831984 4.09919,4.471845 6.33511,10.806958 2.23593,6.210895 2.23593,13.788187 z m -12.04914,0 q 0,-10.931175 -4.96872,-17.266288 -4.8445,-6.459331 -13.29131,-6.459331 -8.44682,0 -13.41554,6.459331 -4.84449,6.335113 -4.84449,17.266288 0,10.931176 4.84449,17.390507 4.96872,6.3351127 13.41554,6.3351127 8.44681,0 13.29131,-6.3351127 4.96872,-6.459331 4.96872,-17.390507 z" />
            <path
               id="path9558"
               style="font-size:124.218px;font-family:Ubuntu;fill:#34b1c1"
               d="m 295.68009,-32.172437 q 0,-11.303829 -5.58981,-17.390506 -5.5898,-6.086678 -14.90614,-6.086678 -5.21716,0 -8.19839,0.372654 -2.85701,0.372654 -4.59606,0.869525 v 40.743473 q 2.11171,1.73905 6.08668,3.353883 3.97497,1.6148328 8.69525,1.6148328 4.96872,0 8.44682,-1.7390508 3.60232,-1.863268 5.83824,-4.968716 2.23592,-3.229665 3.22967,-7.453074 0.99374,-4.347627 0.99374,-9.316343 z m 12.04914,0 q 0,7.328856 -1.98749,13.539752 -1.86327,6.210895 -5.58981,10.6827392 -3.72653,4.4718445 -9.19212,6.95620257 -5.34137,2.48435803 -12.29757,2.48435803 -5.58981,0 -9.93744,-1.4906148 -4.2234,-1.4906148 -6.33511,-2.8570118 V 22.980312 h -11.55226 v -85.586135 q 4.09919,-0.993743 10.18586,-2.111705 6.2109,-1.242179 14.28506,-1.242179 7.45308,0 13.41554,2.360141 5.96246,2.36014 10.18586,6.707766 4.22341,4.347627 6.45934,10.68274 2.36014,6.210895 2.36014,14.036623 z" />
            <path
               id="path9560"
               style="font-size:124.218px;font-family:Ubuntu;fill:#27abd0"
               d="m 352.01068,1.4906148 q -7.82573,0 -13.78819,-2.48435803 -5.83824,-2.48435807 -9.93743,-6.95620257 -3.97497,-4.4718442 -5.96246,-10.5585222 -1.98749,-6.210895 -1.98749,-13.663969 0,-7.453074 2.11171,-13.663969 2.23592,-6.210895 6.21089,-10.68274 3.97498,-4.596062 9.689,-7.08042 5.83824,-2.608576 12.91866,-2.608576 4.34763,0 8.69525,0.745307 4.34763,0.745307 8.3226,2.36014 l -2.60857,9.813215 q -2.60858,-1.242179 -6.08668,-1.987487 -3.35388,-0.745307 -7.20464,-0.745307 -9.68899,0 -14.90615,6.086677 -5.09293,6.086677 -5.09293,17.76316 0,5.217152 1.11796,9.564779 1.24218,4.347626 3.72654,7.453074 2.60857,3.105447 6.58355,4.844498 3.97497,1.6148328 9.68899,1.6148328 4.59607,0 8.3226,-0.8695253 3.72654,-0.8695255 5.83824,-1.8632685 l 1.61484,9.6889964 q -0.99375,0.6210895 -2.85701,1.24217899 Q 364.55669,0 362.19655,0.37265371 q -2.36014,0.49687161 -5.09294,0.74530739 -2.60857,0.3726537 -5.09293,0.3726537 z" />
          </g>
        </g>
      </g>
      <g
         style="font-style:normal;font-variant:normal;font-weight:bold;font-stretch:normal;font-size:16.9333px;line-height:1.25;font-family:'Segoe UI';-inkscape-font-specification:'Segoe UI Bold';letter-spacing:0px;word-spacing:0px;fill:#46baab;fill-opacity:1;stroke:none;stroke-width:0.334197"
         id="text924"
         aria-label="WLSDM Operation Center">
        <path
           id="path880"
           style="font-style:normal;font-variant:normal;font-weight:normal;font-stretch:normal;font-size:16.9333px;font-family:Ubuntu;-inkscape-font-specification:Ubuntu;fill:#46baab;fill-opacity:1;stroke-width:0.334197"
           d="m 13.219757,77.595838 q -0.711198,2.269062 -1.43933,4.199459 -0.728132,1.930396 -1.456264,3.759192 H 8.6816328 Q 7.7841679,82.963694 7.0899026,80.085033 6.4125706,77.206372 5.8199051,73.819712 h 1.7271966 q 0.2370662,1.320798 0.4910657,2.641595 0.2539995,1.320797 0.5249323,2.573862 0.2709328,1.236131 0.5418656,2.370662 0.2709328,1.134531 0.5587989,2.099729 0.6773318,-1.777997 1.4393308,-3.894659 0.761998,-2.133596 1.422397,-4.402658 h 1.422397 q 0.660399,2.269062 1.439331,4.402658 0.778931,2.116662 1.456263,3.894659 0.270933,-0.948265 0.541866,-2.082796 0.270933,-1.134531 0.524932,-2.370662 0.270933,-1.253064 0.524933,-2.573862 0.253999,-1.33773 0.491065,-2.658528 h 1.676397 q -0.609599,3.38666 -1.303864,6.265321 -0.677332,2.878661 -1.557864,5.469456 h -1.64253 Q 15.353353,83.725693 14.642154,81.795297 13.930956,79.8649 13.219757,77.595838 Z" />
        <path
           id="path882"
           style="font-style:normal;font-variant:normal;font-weight:normal;font-stretch:normal;font-size:16.9333px;font-family:Ubuntu;-inkscape-font-specification:Ubuntu;fill:#46baab;fill-opacity:1;stroke-width:0.334197"
           d="m 29.6059,84.132092 v 1.422397 H 22.544714 V 73.819712 h 1.64253 v 10.31238 z" />
        <path
           id="path884"
           style="font-style:normal;font-variant:normal;font-weight:normal;font-stretch:normal;font-size:16.9333px;font-family:Ubuntu;-inkscape-font-specification:Ubuntu;fill:#46baab;fill-opacity:1;stroke-width:0.334197"
           d="m 34.299864,84.386091 q 2.573862,0 2.573862,-1.761063 0,-0.541865 -0.237066,-0.914398 -0.220133,-0.389466 -0.609599,-0.660399 -0.389466,-0.287866 -0.897465,-0.491065 -0.491066,-0.2032 -1.049865,-0.4064 -0.643465,-0.220132 -1.219197,-0.491065 -0.575732,-0.287866 -0.999065,-0.660399 -0.423332,-0.389466 -0.677332,-0.914398 -0.237066,-0.524932 -0.237066,-1.269998 0,-1.54093 1.049864,-2.404528 1.049865,-0.863599 2.895595,-0.863599 1.066798,0 1.930396,0.237067 0.880532,0.220133 1.286931,0.491065 l -0.524933,1.337731 q -0.355599,-0.220133 -1.066797,-0.423332 -0.694266,-0.220133 -1.625597,-0.220133 -0.474133,0 -0.880532,0.101599 -0.406399,0.1016 -0.711198,0.3048 -0.3048,0.203199 -0.491066,0.524932 -0.169333,0.3048 -0.169333,0.728132 0,0.474132 0.186266,0.795865 0.186266,0.321733 0.524932,0.575732 0.338666,0.237067 0.778932,0.440266 0.457199,0.2032 0.999065,0.406399 0.761998,0.3048 1.388531,0.609599 0.643465,0.3048 1.100664,0.728132 0.474132,0.423333 0.728132,1.015998 0.253999,0.575732 0.253999,1.405464 0,1.54093 -1.134531,2.370662 -1.117597,0.829732 -3.166527,0.829732 -0.694265,0 -1.286931,-0.1016 -0.575732,-0.08467 -1.032931,-0.2032 -0.457199,-0.135466 -0.795865,-0.270933 -0.321733,-0.152399 -0.507999,-0.253999 l 0.491066,-1.354664 q 0.389466,0.220133 1.185331,0.491066 0.795865,0.270932 1.947329,0.270932 z" />
        <path
           id="path886"
           style="font-style:normal;font-variant:normal;font-weight:normal;font-stretch:normal;font-size:16.9333px;font-family:Ubuntu;-inkscape-font-specification:Ubuntu;fill:#46baab;fill-opacity:1;stroke-width:0.334197"
           d="m 50.204464,79.678634 q 0,1.523997 -0.474132,2.658528 -0.474133,1.117598 -1.337731,1.862663 -0.863598,0.728132 -2.065863,1.100665 -1.202264,0.355599 -2.641594,0.355599 -0.711199,0 -1.574797,-0.06773 -0.846665,-0.0508 -1.540931,-0.220133 V 73.989045 q 0.694266,-0.169333 1.540931,-0.220133 0.863598,-0.06773 1.574797,-0.06773 1.43933,0 2.641594,0.372533 1.202265,0.355599 2.065863,1.100664 0.863598,0.728132 1.337731,1.862663 0.474132,1.117598 0.474132,2.641595 z m -6.383854,4.538124 q 2.336795,0 3.48826,-1.185331 1.151464,-1.202264 1.151464,-3.352793 0,-2.150529 -1.151464,-3.33586 -1.151465,-1.202264 -3.48826,-1.202264 -0.694265,0 -1.083731,0.01693 -0.372533,0.01693 -0.524933,0.03387 v 8.974649 q 0.1524,0.01693 0.524933,0.03387 0.389466,0.01693 1.083731,0.01693 z" />
        <path
           id="path888"
           style="font-style:normal;font-variant:normal;font-weight:normal;font-stretch:normal;font-size:16.9333px;font-family:Ubuntu;-inkscape-font-specification:Ubuntu;fill:#46baab;fill-opacity:1;stroke-width:0.334197"
           d="m 57.907267,83.928892 q -0.169333,-0.406399 -0.457199,-1.032931 -0.270933,-0.626532 -0.592666,-1.354664 -0.321732,-0.728132 -0.694265,-1.49013 -0.355599,-0.778932 -0.677332,-1.456264 -0.321733,-0.694265 -0.609599,-1.236131 -0.270933,-0.541866 -0.440266,-0.829732 -0.186266,1.99813 -0.304799,4.334925 -0.118533,2.319862 -0.2032,4.690524 h -1.608663 q 0.06773,-1.523997 0.1524,-3.064927 0.08467,-1.557864 0.186266,-3.047994 0.118533,-1.507064 0.237066,-2.929461 0.135466,-1.422397 0.287866,-2.692395 h 1.439331 q 0.457199,0.745065 0.982131,1.761063 0.524932,1.015998 1.049865,2.133596 0.524932,1.100665 1.015998,2.218263 0.491065,1.100664 0.897465,2.015062 0.406399,-0.914398 0.897464,-2.015062 0.491066,-1.117598 1.015998,-2.218263 0.524933,-1.117598 1.049865,-2.133596 0.524932,-1.015998 0.982131,-1.761063 h 1.439331 q 0.575732,5.672656 0.863598,11.734777 H 63.20739 q -0.08467,-2.370662 -0.2032,-4.690524 -0.118533,-2.336795 -0.304799,-4.334925 -0.169333,0.287866 -0.457199,0.829732 -0.270933,0.541866 -0.592666,1.236131 -0.321733,0.677332 -0.694265,1.456264 -0.355599,0.761998 -0.677332,1.49013 -0.321733,0.728132 -0.609599,1.354664 -0.270933,0.626532 -0.440266,1.032931 z" />
        <path
           id="path890"
           style="font-style:normal;font-variant:normal;font-weight:normal;font-stretch:normal;font-size:16.9333px;font-family:Ubuntu;-inkscape-font-specification:Ubuntu;fill:#46baab;fill-opacity:1;stroke-width:0.334197"
           d="m 70.819962,79.678634 q 0,-1.507064 0.440266,-2.658528 0.457199,-1.151464 1.219197,-1.913463 0.778932,-0.778932 1.79493,-1.168398 1.032931,-0.389466 2.184396,-0.389466 1.134531,0 2.133596,0.389466 1.015998,0.389466 1.777996,1.168398 0.761999,0.761999 1.202264,1.913463 0.4572,1.151464 0.4572,2.658528 0,1.507064 -0.4572,2.658528 -0.440265,1.151465 -1.202264,1.930396 -0.761998,0.761999 -1.777996,1.151465 -0.999065,0.389466 -2.133596,0.389466 -1.151465,0 -2.184396,-0.389466 -1.015998,-0.389466 -1.79493,-1.151465 -0.761998,-0.778931 -1.219197,-1.930396 -0.440266,-1.151464 -0.440266,-2.658528 z m 1.727197,0 q 0,1.066798 0.270932,1.94733 0.270933,0.863598 0.761999,1.473197 0.507999,0.609598 1.219197,0.948264 0.728132,0.321733 1.625597,0.321733 0.897465,0 1.608664,-0.321733 0.711198,-0.338666 1.202264,-0.948264 0.507999,-0.609599 0.778932,-1.473197 0.270933,-0.880532 0.270933,-1.94733 0,-1.066798 -0.270933,-1.930396 -0.270933,-0.880532 -0.778932,-1.490131 -0.491066,-0.609598 -1.202264,-0.931331 -0.711199,-0.338666 -1.608664,-0.338666 -0.897465,0 -1.625597,0.338666 -0.711198,0.321733 -1.219197,0.931331 -0.491066,0.609599 -0.761999,1.490131 -0.270932,0.863598 -0.270932,1.930396 z" />
        <path
           id="path892"
           style="font-style:normal;font-variant:normal;font-weight:normal;font-stretch:normal;font-size:16.9333px;font-family:Ubuntu;-inkscape-font-specification:Ubuntu;fill:#46baab;fill-opacity:1;stroke-width:0.334197"
           d="m 90.468418,81.168764 q 0,-1.54093 -0.761999,-2.370662 -0.761998,-0.829731 -2.031996,-0.829731 -0.711198,0 -1.117597,0.0508 -0.389466,0.0508 -0.626533,0.118533 v 5.554122 q 0.287867,0.237066 0.829732,0.457199 0.541866,0.220133 1.185331,0.220133 0.677332,0 1.151465,-0.237066 0.491065,-0.254 0.795865,-0.677332 0.304799,-0.440266 0.440265,-1.015998 0.135467,-0.592666 0.135467,-1.269998 z m 1.64253,0 q 0,0.999065 -0.270933,1.84573 -0.253999,0.846665 -0.761998,1.456264 -0.507999,0.609599 -1.253065,0.948265 -0.728131,0.338666 -1.676396,0.338666 -0.761999,0 -1.354664,-0.2032 Q 86.21816,85.35129 85.930293,85.165023 V 88.68715 H 84.355497 V 77.020106 q 0.558798,-0.135466 1.38853,-0.287866 0.846665,-0.169333 1.94733,-0.169333 1.015998,0 1.828796,0.321733 0.812798,0.321732 1.388531,0.914398 0.575732,0.592665 0.880531,1.456264 0.321733,0.846665 0.321733,1.913462 z" />
        <path
           id="path894"
           style="font-style:normal;font-variant:normal;font-weight:normal;font-stretch:normal;font-size:16.9333px;font-family:Ubuntu;-inkscape-font-specification:Ubuntu;fill:#46baab;fill-opacity:1;stroke-width:0.334197"
           d="m 93.85243,81.168764 q 0,-1.168397 0.338666,-2.031996 0.338666,-0.880531 0.897465,-1.456263 0.558799,-0.575733 1.286931,-0.863599 0.728131,-0.287866 1.49013,-0.287866 1.777996,0 2.726258,1.117598 0.94827,1.100665 0.94827,3.369727 0,0.1016 0,0.270933 0,0.152399 -0.0169,0.287866 h -6.02825 q 0.1016,1.371597 0.795865,2.082796 0.694265,0.711198 2.167462,0.711198 0.829732,0 1.388531,-0.135466 0.575732,-0.1524 0.863602,-0.287866 l 0.22013,1.320797 q -0.28787,0.1524 -1.015999,0.321733 -0.711198,0.169333 -1.625597,0.169333 -1.151464,0 -1.998129,-0.338666 -0.829732,-0.3556 -1.371597,-0.965198 -0.541866,-0.609599 -0.812799,-1.439331 -0.253999,-0.846665 -0.253999,-1.84573 z m 6.045188,-0.863598 q 0.01693,-1.066798 -0.541866,-1.74413 -0.541865,-0.694265 -1.507063,-0.694265 -0.541866,0 -0.965198,0.220133 -0.4064,0.203199 -0.694266,0.541865 -0.287866,0.338666 -0.457199,0.778932 -0.1524,0.440266 -0.203199,0.897465 z" />
        <path
           id="path896"
           style="font-style:normal;font-variant:normal;font-weight:normal;font-stretch:normal;font-size:16.9333px;font-family:Ubuntu;-inkscape-font-specification:Ubuntu;fill:#46baab;fill-opacity:1;stroke-width:0.334197"
           d="m 107.05352,76.562907 q 0.2032,0 0.4572,0.03387 0.27093,0.01693 0.52493,0.06773 0.254,0.03387 0.4572,0.08467 0.22013,0.03387 0.32173,0.06773 l -0.27093,1.371598 q -0.18626,-0.06773 -0.62653,-0.1524 -0.42333,-0.1016 -1.10067,-0.1016 -0.44026,0 -0.88053,0.1016 -0.42333,0.08467 -0.5588,0.118533 v 7.399852 h -1.57479 v -8.432783 q 0.5588,-0.2032 1.38853,-0.372533 0.82973,-0.186266 1.86266,-0.186266 z" />
        <path
           id="path898"
           style="font-style:normal;font-variant:normal;font-weight:normal;font-stretch:normal;font-size:16.9333px;font-family:Ubuntu;-inkscape-font-specification:Ubuntu;fill:#46baab;fill-opacity:1;stroke-width:0.334197"
           d="m 113.33101,84.419958 q 0.5588,0 0.98213,-0.01693 0.44027,-0.03387 0.72814,-0.1016 v -2.624662 q -0.16934,-0.08467 -0.5588,-0.135466 -0.37254,-0.06773 -0.9144,-0.06773 -0.3556,0 -0.762,0.0508 -0.38947,0.0508 -0.72813,0.220133 -0.32174,0.152399 -0.54187,0.440265 -0.22013,0.270933 -0.22013,0.728132 0,0.846665 0.54186,1.185331 0.54187,0.321733 1.4732,0.321733 z m -0.13546,-7.890918 q 0.94826,0 1.59173,0.254 0.66039,0.237066 1.04986,0.694265 0.4064,0.440266 0.57573,1.066798 0.16934,0.609599 0.16934,1.354664 v 5.503322 q -0.2032,0.03387 -0.57574,0.1016 -0.3556,0.0508 -0.8128,0.1016 -0.45719,0.0508 -0.99906,0.08467 -0.52493,0.0508 -1.04986,0.0508 -0.74507,0 -1.3716,-0.152399 -0.62653,-0.1524 -1.08373,-0.474133 -0.4572,-0.338666 -0.7112,-0.880531 -0.254,-0.541866 -0.254,-1.303864 0,-0.728132 0.28787,-1.253065 0.30479,-0.524932 0.81279,-0.846665 0.508,-0.321732 1.18533,-0.474132 0.67734,-0.1524 1.4224,-0.1524 0.23707,0 0.49107,0.03387 0.254,0.01693 0.47413,0.06773 0.23707,0.03387 0.4064,0.06773 0.16933,0.03387 0.23707,0.0508 v -0.440266 q 0,-0.389465 -0.0847,-0.761998 -0.0847,-0.389466 -0.3048,-0.677332 -0.22013,-0.304799 -0.6096,-0.474132 -0.37253,-0.186267 -0.98213,-0.186267 -0.77893,0 -1.3716,0.118533 -0.57573,0.1016 -0.8636,0.220133 l -0.18626,-1.303864 q 0.3048,-0.135466 1.016,-0.253999 0.71119,-0.135467 1.54093,-0.135467 z" />
        <path
           id="path900"
           style="font-style:normal;font-variant:normal;font-weight:normal;font-stretch:normal;font-size:16.9333px;font-family:Ubuntu;-inkscape-font-specification:Ubuntu;fill:#46baab;fill-opacity:1;stroke-width:0.334197"
           d="m 120.6544,76.749173 h 3.33586 v 1.320798 h -3.33586 v 4.063992 q 0,0.660398 0.1016,1.100664 0.1016,0.423333 0.3048,0.677332 0.2032,0.237066 0.508,0.338666 0.3048,0.1016 0.7112,0.1016 0.7112,0 1.13453,-0.1524 0.44026,-0.169333 0.6096,-0.237066 l 0.3048,1.303864 q -0.23707,0.118533 -0.82974,0.287866 -0.59266,0.186266 -1.35466,0.186266 -0.89746,0 -1.49013,-0.220132 -0.57573,-0.237067 -0.93133,-0.694266 -0.3556,-0.457199 -0.508,-1.117598 -0.13547,-0.677332 -0.13547,-1.557863 v -7.857051 l 1.5748,-0.270933 z" />
        <path
           id="path902"
           style="font-style:normal;font-variant:normal;font-weight:normal;font-stretch:normal;font-size:16.9333px;font-family:Ubuntu;-inkscape-font-specification:Ubuntu;fill:#46baab;fill-opacity:1;stroke-width:0.334197"
           d="m 127.56901,85.554489 h -1.5748 v -8.805316 h 1.5748 z m -0.79586,-10.397046 q -0.42334,0 -0.72814,-0.270933 -0.28786,-0.287866 -0.28786,-0.761998 0,-0.474133 0.28786,-0.745066 0.3048,-0.287866 0.72814,-0.287866 0.42333,0 0.71119,0.287866 0.3048,0.270933 0.3048,0.745066 0,0.474132 -0.3048,0.761998 -0.28786,0.270933 -0.71119,0.270933 z" />
        <path
           id="path904"
           style="font-style:normal;font-variant:normal;font-weight:normal;font-stretch:normal;font-size:16.9333px;font-family:Ubuntu;-inkscape-font-specification:Ubuntu;fill:#46baab;fill-opacity:1;stroke-width:0.334197"
           d="m 138.06607,81.151831 q 0,1.049865 -0.3048,1.89653 -0.3048,0.846665 -0.8636,1.456264 -0.54187,0.609598 -1.30386,0.948264 -0.762,0.321733 -1.65947,0.321733 -0.89746,0 -1.65946,-0.321733 -0.762,-0.338666 -1.3208,-0.948264 -0.54186,-0.609599 -0.84666,-1.456264 -0.3048,-0.846665 -0.3048,-1.89653 0,-1.032931 0.3048,-1.879596 0.3048,-0.863598 0.84666,-1.473197 0.5588,-0.609599 1.3208,-0.931332 0.762,-0.338666 1.65946,-0.338666 0.89747,0 1.65947,0.338666 0.76199,0.321733 1.30386,0.931332 0.5588,0.609599 0.8636,1.473197 0.3048,0.846665 0.3048,1.879596 z m -1.64253,0 q 0,-1.49013 -0.67733,-2.353729 -0.6604,-0.880531 -1.81187,-0.880531 -1.15146,0 -1.82879,0.880531 -0.6604,0.863599 -0.6604,2.353729 0,1.490131 0.6604,2.370662 0.67733,0.863598 1.82879,0.863598 1.15147,0 1.81187,-0.863598 0.67733,-0.880531 0.67733,-2.370662 z" />
        <path
           id="path906"
           style="font-style:normal;font-variant:normal;font-weight:normal;font-stretch:normal;font-size:16.9333px;font-family:Ubuntu;-inkscape-font-specification:Ubuntu;fill:#46baab;fill-opacity:1;stroke-width:0.334197"
           d="m 140.28169,77.003173 q 0.54187,-0.135467 1.43933,-0.287866 0.89747,-0.1524 2.06586,-0.1524 1.04987,0 1.74413,0.304799 0.69427,0.287866 1.10067,0.829732 0.42333,0.524932 0.59266,1.269997 0.16934,0.745066 0.16934,1.642531 v 4.944523 h -1.5748 v -4.605857 q 0,-0.812799 -0.11853,-1.388531 -0.1016,-0.575732 -0.3556,-0.931332 -0.254,-0.355599 -0.67734,-0.507999 -0.42333,-0.169333 -1.04986,-0.169333 -0.254,0 -0.52493,0.01693 -0.27094,0.01693 -0.52493,0.0508 -0.23707,0.01693 -0.44027,0.0508 -0.18627,0.03387 -0.27093,0.0508 v 7.433719 h -1.5748 z" />
        <path
           id="path908"
           style="font-style:normal;font-variant:normal;font-weight:normal;font-stretch:normal;font-size:16.9333px;font-family:Ubuntu;-inkscape-font-specification:Ubuntu;fill:#46baab;fill-opacity:1;stroke-width:0.334197"
           d="m 159.05542,85.808489 q -1.23613,0 -2.25213,-0.4064 -1.016,-0.406399 -1.74413,-1.185331 -0.72813,-0.778931 -1.13453,-1.913462 -0.38947,-1.151465 -0.38947,-2.624662 0,-1.473197 0.44027,-2.607728 0.4572,-1.151465 1.2192,-1.930396 0.762,-0.778932 1.77799,-1.185331 1.016,-0.4064 2.16747,-0.4064 0.72813,0 1.30386,0.1016 0.59267,0.1016 1.016,0.237066 0.44026,0.135467 0.7112,0.270933 0.27093,0.135467 0.37253,0.2032 l -0.47413,1.354664 q -0.1524,-0.1016 -0.44027,-0.220133 -0.28786,-0.118533 -0.6604,-0.237066 -0.3556,-0.118533 -0.79586,-0.186267 -0.42333,-0.08467 -0.8636,-0.08467 -0.93133,0 -1.6764,0.321733 -0.74506,0.321732 -1.26999,0.931331 -0.52494,0.609599 -0.8128,1.490131 -0.27094,0.863598 -0.27094,1.947329 0,1.049865 0.23707,1.913463 0.254,0.863598 0.74507,1.49013 0.49106,0.609599 1.21919,0.948265 0.74507,0.338666 1.7272,0.338666 1.13453,0 1.8796,-0.237066 0.74506,-0.237066 1.11759,-0.423333 l 0.42334,1.354664 q -0.11854,0.08467 -0.42334,0.220133 -0.3048,0.118533 -0.76199,0.237067 -0.4572,0.118533 -1.0668,0.203199 -0.6096,0.08467 -1.3208,0.08467 z" />
        <path
           id="path910"
           style="font-style:normal;font-variant:normal;font-weight:normal;font-stretch:normal;font-size:16.9333px;font-family:Ubuntu;-inkscape-font-specification:Ubuntu;fill:#46baab;fill-opacity:1;stroke-width:0.334197"
           d="m 163.63614,81.168764 q 0,-1.168397 0.33867,-2.031996 0.33867,-0.880531 0.89747,-1.456263 0.55879,-0.575733 1.28693,-0.863599 0.72813,-0.287866 1.49013,-0.287866 1.77799,0 2.72626,1.117598 0.94826,1.100665 0.94826,3.369727 0,0.1016 0,0.270933 0,0.152399 -0.0169,0.287866 h -6.02826 q 0.1016,1.371597 0.79587,2.082796 0.69426,0.711198 2.16746,0.711198 0.82973,0 1.38853,-0.135466 0.57573,-0.1524 0.8636,-0.287866 l 0.22013,1.320797 q -0.28786,0.1524 -1.01599,0.321733 -0.7112,0.169333 -1.6256,0.169333 -1.15147,0 -1.99813,-0.338666 -0.82973,-0.3556 -1.3716,-0.965198 -0.54186,-0.609599 -0.8128,-1.439331 -0.254,-0.846665 -0.254,-1.84573 z m 6.04519,-0.863598 q 0.0169,-1.066798 -0.54186,-1.74413 -0.54187,-0.694265 -1.50707,-0.694265 -0.54186,0 -0.9652,0.220133 -0.40639,0.203199 -0.69426,0.541865 -0.28787,0.338666 -0.4572,0.778932 -0.1524,0.440266 -0.2032,0.897465 z" />
        <path
           id="path912"
           style="font-style:normal;font-variant:normal;font-weight:normal;font-stretch:normal;font-size:16.9333px;font-family:Ubuntu;-inkscape-font-specification:Ubuntu;fill:#46baab;fill-opacity:1;stroke-width:0.334197"
           d="m 173.58604,77.003173 q 0.54187,-0.135467 1.43933,-0.287866 0.89747,-0.1524 2.06586,-0.1524 1.04987,0 1.74413,0.304799 0.69427,0.287866 1.10067,0.829732 0.42333,0.524932 0.59266,1.269997 0.16934,0.745066 0.16934,1.642531 v 4.944523 h -1.5748 v -4.605857 q 0,-0.812799 -0.11853,-1.388531 -0.1016,-0.575732 -0.3556,-0.931332 -0.254,-0.355599 -0.67733,-0.507999 -0.42334,-0.169333 -1.04987,-0.169333 -0.254,0 -0.52493,0.01693 -0.27093,0.01693 -0.52493,0.0508 -0.23707,0.01693 -0.44027,0.0508 -0.18626,0.03387 -0.27093,0.0508 v 7.433719 h -1.5748 z" />
        <path
           id="path914"
           style="font-style:normal;font-variant:normal;font-weight:normal;font-stretch:normal;font-size:16.9333px;font-family:Ubuntu;-inkscape-font-specification:Ubuntu;fill:#46baab;fill-opacity:1;stroke-width:0.334197"
           d="m 184.78266,76.749173 h 3.33586 v 1.320798 h -3.33586 v 4.063992 q 0,0.660398 0.1016,1.100664 0.1016,0.423333 0.3048,0.677332 0.2032,0.237066 0.508,0.338666 0.3048,0.1016 0.71119,0.1016 0.7112,0 1.13454,-0.1524 0.44026,-0.169333 0.60959,-0.237066 l 0.3048,1.303864 q -0.23706,0.118533 -0.82973,0.287866 -0.59266,0.186266 -1.35466,0.186266 -0.89747,0 -1.49013,-0.220132 -0.57573,-0.237067 -0.93133,-0.694266 -0.3556,-0.457199 -0.508,-1.117598 -0.13547,-0.677332 -0.13547,-1.557863 v -7.857051 l 1.5748,-0.270933 z" />
        <path
           id="path916"
           style="font-style:normal;font-variant:normal;font-weight:normal;font-stretch:normal;font-size:16.9333px;font-family:Ubuntu;-inkscape-font-specification:Ubuntu;fill:#46baab;fill-opacity:1;stroke-width:0.334197"
           d="m 189.46604,81.168764 q 0,-1.168397 0.33867,-2.031996 0.33866,-0.880531 0.89746,-1.456263 0.5588,-0.575733 1.28693,-0.863599 0.72813,-0.287866 1.49013,-0.287866 1.778,0 2.72626,1.117598 0.94827,1.100665 0.94827,3.369727 0,0.1016 0,0.270933 0,0.152399 -0.0169,0.287866 h -6.02825 q 0.1016,1.371597 0.79586,2.082796 0.69427,0.711198 2.16747,0.711198 0.82973,0 1.38853,-0.135466 0.57573,-0.1524 0.8636,-0.287866 l 0.22013,1.320797 q -0.28787,0.1524 -1.016,0.321733 -0.7112,0.169333 -1.6256,0.169333 -1.15146,0 -1.99813,-0.338666 -0.82973,-0.3556 -1.37159,-0.965198 -0.54187,-0.609599 -0.8128,-1.439331 -0.254,-0.846665 -0.254,-1.84573 z m 6.04519,-0.863598 q 0.0169,-1.066798 -0.54187,-1.74413 -0.54186,-0.694265 -1.50706,-0.694265 -0.54187,0 -0.9652,0.220133 -0.4064,0.203199 -0.69427,0.541865 -0.28786,0.338666 -0.45719,0.778932 -0.1524,0.440266 -0.2032,0.897465 z" />
        <path
           id="path918"
           style="font-style:normal;font-variant:normal;font-weight:normal;font-stretch:normal;font-size:16.9333px;font-family:Ubuntu;-inkscape-font-specification:Ubuntu;fill:#46baab;fill-opacity:1;stroke-width:0.334197"
           d="m 202.66713,76.562907 q 0.2032,0 0.4572,0.03387 0.27093,0.01693 0.52493,0.06773 0.254,0.03387 0.4572,0.08467 0.22013,0.03387 0.32173,0.06773 l -0.27093,1.371598 q -0.18627,-0.06773 -0.62653,-0.1524 -0.42333,-0.1016 -1.10067,-0.1016 -0.44026,0 -0.88053,0.1016 -0.42333,0.08467 -0.5588,0.118533 v 7.399852 h -1.57479 v -8.432783 q 0.5588,-0.2032 1.38853,-0.372533 0.82973,-0.186266 1.86266,-0.186266 z" />
      </g>
    </g>
  </g>
  <style
     type="text/css"
     id="style2">
	.st0{fill:url(#SVGID_1_);}
	.st1{fill:url(#SVGID_2_);}
	.st2{fill:url(#SVGID_3_);}
	.st3{fill:url(#SVGID_4_);}
	.st4{fill:#5EC68F;}
	.st5{font-family:'Ubuntu';}
	.st6{font-size:124.2179px;}
	.st7{fill:#4EBEA3;}
	.st8{fill:#46BAAB;}
	.st9{fill:#39B4BB;}
	.st10{fill:#34B1C1;}
	.st11{fill:#27ABD0;}
	.st12{fill:url(#SVGID_5_);}
	.st13{fill:url(#SVGID_6_);}
	.st14{fill:url(#SVGID_7_);}
	.st15{fill:url(#SVGID_8_);}
</style>
</svg>
