<?xml version="1.0" encoding="utf-8"?>
<!-- Generator: Adobe Illustrator 19.0.0, SVG Export Plug-In . SVG Version: 6.00 Build 0)  -->
<svg version="1.1" id="Layer_1" xmlns="http://www.w3.org/2000/svg" xmlns:xlink="http://www.w3.org/1999/xlink" x="0px" y="0px"
	 viewBox="-280 372 50 50" style="enable-background:new -280 372 50 50;" xml:space="preserve">
<style type="text/css">
	.st0{fill:#59B4D9;}
	.st1{fill:#FFFFFF;}
	.st2{opacity:0.5;fill:#FFFFFF;enable-background:new    ;}
	.st3{fill:#B8D432;}
	.st4{opacity:0.1;fill:#FFFFFF;enable-background:new    ;}
	.st5{fill:#BA141A;}
	.st6{opacity:0.2;fill:#FFFFFF;enable-background:new    ;}
</style>
<path class="st0" d="M-258,416c-1.1,0-2.1-0.4-2.9-1.2l-17.9-17.9c-0.8-0.8-1.2-1.8-1.2-2.9s0.4-2.1,1.2-2.9l17.9-17.9
	c0.8-0.8,1.8-1.2,2.9-1.2s2.1,0.4,2.9,1.2l17.9,17.9c0.8,0.8,1.2,1.8,1.2,2.9s-0.4,2.1-1.2,2.9l-17.9,17.9
	C-255.9,415.6-256.9,416-258,416"/>
<path class="st1" d="M-246,390.6c-1.9,0-3.4,1.5-3.4,3.4c0,0.7,0.2,1.3,0.6,1.9l-6.8,6.8c-0.2-0.1-0.4-0.2-0.6-0.3V385
	c1-0.6,1.7-1.7,1.7-3c0-1.9-1.5-3.4-3.4-3.4s-3.4,1.5-3.4,3.4c0,1.3,0.7,2.4,1.7,3v17.4c-0.2,0.1-0.4,0.2-0.6,0.3l-6.8-6.8
	c0.3-0.5,0.6-1.2,0.6-1.9c0-1.9-1.5-3.4-3.4-3.4c-1.9,0-3.4,1.5-3.4,3.4s1.5,3.4,3.4,3.4c0.4,0,0.8-0.1,1.1-0.2l7.2,7.2
	c-0.2,0.5-0.3,1-0.3,1.6c0,2.2,1.8,4,4,4c2.2,0,4-1.8,4-4c0-0.5-0.1-1.1-0.3-1.5l7.2-7.2c0.3,0.1,0.7,0.2,1.1,0.2
	c1.9,0,3.4-1.5,3.4-3.4C-242.6,392.1-244.1,390.6-246,390.6z"/>
<rect x="-252.7" y="379.2" transform="matrix(-0.707 0.7072 -0.7072 -0.707 -154.9175 840.799)" class="st2" width="2.2" height="18.2"/>
<rect x="-265.4" y="379.2" transform="matrix(0.7071 0.7071 -0.7071 0.7071 197.1675 300.6512)" class="st2" width="2.2" height="18.2"/>
<path class="st3" d="M-255.7,406c0,1.3-1.1,2.4-2.4,2.4c-1.3,0-2.4-1.1-2.4-2.4s1.1-2.4,2.4-2.4C-256.7,403.6-255.7,404.7-255.7,406
	"/>
<path class="st3" d="M-256.1,382c0,1.1-0.9,1.9-1.9,1.9s-1.9-0.9-1.9-1.9s0.9-1.9,1.9-1.9S-256.1,381-256.1,382"/>
<path class="st3" d="M-268.1,394c0,1.1-0.9,1.9-1.9,1.9c-1.1,0-1.9-0.9-1.9-1.9c0-1.1,0.9-1.9,1.9-1.9
	C-268.9,392.1-268.1,392.9-268.1,394"/>
<path class="st3" d="M-244.1,394c0,1.1-0.9,1.9-1.9,1.9s-1.9-0.9-1.9-1.9c0-1.1,0.9-1.9,1.9-1.9S-244.1,392.9-244.1,394"/>
<path class="st4" d="M-255.1,373.2c-0.8-0.8-1.8-1.2-2.9-1.2s-2.1,0.4-2.9,1.2l-17.9,17.9c-0.8,0.8-1.2,1.8-1.2,2.9s0.4,2.1,1.2,2.9
	l10.1,10.1l19.2-28.2L-255.1,373.2z"/>
<path class="st5" d="M-231.8,402.3c-0.4-0.5-1-0.8-1.6-1.1c-2.7-1.1-6.6,0.3-9,3.7c-3.8-4.5-8.2-5.4-10.7-2.7
	c-5,5.4,1.3,12.6,6.2,16.6c1.9,1.6,3.7,2.7,4.4,3.1l0,0l0,0l0,0l0,0C-239.8,420.7-224.9,409.8-231.8,402.3"/>
<path class="st6" d="M-242.4,404.9c-3.8-4.5-8.2-5.4-10.7-2.7c-5,5.4,1.3,12.6,6.2,16.6l13.6-17.7
	C-236.1,400.1-240,401.5-242.4,404.9"/>
<path class="st2" d="M-253.8,411.1h2.8l2.5-0.1l1.9-5.1c0.1-0.3,0.3-0.9,1.1-0.9s0.9,0.6,0.9,0.9l0.1,8.5l1.4-2.9
	c0.1-0.3,0.4-0.4,0.6-0.4h8.1c0.4,0,0.7,0.4,0.7,0.7c0,0.3-0.3,0.9-0.7,0.9h-7.3l-2.6,5.2c-0.2,0.5-0.4,0.7-1,0.6l0,0
	c-0.3-0.1-0.6-0.5-0.6-0.8l-0.1-7.8l-0.8,2.1c-0.1,0.3-0.3,0.7-0.6,0.7h-2.4h-3.1l-0.5-0.8L-253.8,411.1z"/>
</svg>
