<?xml version="1.0" encoding="utf-8"?>
<!-- Generator: Adobe Illustrator 19.0.0, SVG Export Plug-In . SVG Version: 6.00 Build 0)  -->
<svg version="1.1" id="Layer_1" xmlns="http://www.w3.org/2000/svg" xmlns:xlink="http://www.w3.org/1999/xlink" x="0px" y="0px"
	 viewBox="-288.5 277 41 41" style="enable-background:new -288.5 277 41 41;" xml:space="preserve">
<style type="text/css">
	.st0{fill:#0078D7;}
	.st1{fill:#A0A1A2;}
	.st2{fill:#2EBA00;}
</style>
<g id="paths">
	<g id="VHD_data_disk">
		<g>
			<g>
				<ellipse class="st0" cx="-268" cy="293.1" rx="1.7" ry="1.7"/>
				<ellipse class="st0" cx="-268" cy="296.1" rx="0.6" ry="0.6"/>
				<circle class="st0" cx="-271" cy="293.1" r="0.6"/>
				<path class="st0" d="M-270.5,294.8c-0.2,0.2-0.2,0.6,0,0.9c0.1,0.1,0.3,0.2,0.4,0.2c0.2,0,0.3-0.1,0.4-0.2s0.2-0.3,0.2-0.4
					c0-0.2-0.1-0.3-0.2-0.4C-269.9,294.6-270.3,294.6-270.5,294.8z"/>
				<path class="st0" d="M-270.1,291.6c0.2,0,0.3-0.1,0.4-0.2c0.1-0.1,0.2-0.3,0.2-0.4c0-0.2-0.1-0.3-0.2-0.4
					c-0.2-0.2-0.6-0.2-0.9,0c-0.2,0.2-0.2,0.6,0,0.9C-270.4,291.6-270.3,291.6-270.1,291.6z"/>
				<ellipse class="st0" cx="-277.5" cy="309.6" rx="1.5" ry="1.5"/>
				<path class="st0" d="M-265.9,291.6c0.2,0,0.3-0.1,0.4-0.2c0.1-0.1,0.2-0.3,0.2-0.4c0-0.2-0.1-0.3-0.2-0.4
					c-0.2-0.2-0.6-0.2-0.9,0c-0.2,0.2-0.2,0.6,0,0.9C-266.2,291.6-266.1,291.6-265.9,291.6z"/>
				<ellipse class="st0" cx="-268" cy="290.1" rx="0.6" ry="0.6"/>
				<path class="st1" d="M-266.8,304.7c-0.4,0-0.9,0.1-1.3,0.1c-0.7,0-1.4-0.1-2.1-0.2l1.1-2.1c0-0.1,0-0.1,0.1-0.2
					c0.2-0.3,0.2-0.7,0.2-1.1c0-1.5-1.2-2.8-2.7-2.8c-0.7,0-1.4,0.3-2,0.8l-2.4,2.4c-2.3-2.1-3.8-5.2-3.8-8.6
					c0-6.5,5.2-11.7,11.6-11.7s11.6,5.2,11.6,11.7c0,3-1.1,5.7-3,7.8h0.1c2.2,0,4.5,0.5,5.9,1.5v-23.6c0-0.5-0.4-1-1-1h-27.2
					c-0.5,0-0.9,0.4-0.9,1v35.1c0,0.5,0.4,1,0.9,1h14.9v-9.9C-266.8,304.9-266.8,304.8-266.8,304.7z M-255.5,278.7
					c0.5,0,0.8,0.4,0.8,0.8c0,0.5-0.4,0.8-0.8,0.8c-0.5,0-0.8-0.4-0.8-0.8C-256.3,279-255.9,278.7-255.5,278.7z M-281.5,279.5
					c0-0.5,0.4-0.8,0.8-0.8s0.8,0.4,0.8,0.8c0,0.5-0.4,0.8-0.8,0.8C-281.1,280.3-281.5,280-281.5,279.5z M-274.6,311.3L-274.6,311.3
					c-0.6,1-1.7,1.8-2.9,1.8c-1.8,0-3.3-1.5-3.3-3.4c0-0.9,0.4-1.8,1-2.4l7.1-7.2c0.3-0.3,0.7-0.5,1.2-0.5c0.9,0,1.7,0.8,1.7,1.7
					c0,0.3-0.1,0.5-0.2,0.8l0,0L-274.6,311.3C-274.6,311.2-274.6,311.2-274.6,311.3z"/>
				<path class="st0" d="M-266.4,294.8c-0.2,0.2-0.2,0.6,0,0.9c0.1,0.1,0.3,0.2,0.4,0.2c0.2,0,0.3-0.1,0.4-0.2s0.2-0.3,0.2-0.4
					c0-0.2-0.1-0.3-0.2-0.4C-265.7,294.6-266.1,294.6-266.4,294.8z"/>
				<path class="st0" d="M-268.1,287.6c-3,0-5.4,2.5-5.4,5.5s2.4,5.5,5.4,5.5s5.5-2.5,5.5-5.5S-265.1,287.6-268.1,287.6z
					 M-268,297.5c-2.4,0-4.4-2-4.4-4.4s1.9-4.4,4.4-4.4c2.4,0,4.4,2,4.4,4.4C-263.6,295.6-265.6,297.5-268,297.5z"/>
				<ellipse class="st0" cx="-265.1" cy="293.1" rx="0.6" ry="0.6"/>
			</g>
			<g id="group989-2010_5_" transform="translate(1238.42,-2152.07)">
				<title>Sheet.989</title>
				<g id="shape1003-2037_5_" transform="translate(20.9017,-0.69975)">
					<title>Sheet.1003</title>
					<path class="st2" d="M-1518.6,2455.4c-3.2,0-5.8,1.1-5.8,2.3v10.8c0,1.2,2.6,2.3,5.8,2.3c3.2,0,5.8-1.1,5.8-2.3v-10.8
						C-1512.8,2456.6-1515.4,2455.4-1518.6,2455.4z M-1518.6,2458.8c-2.3,0-4.1-0.6-4.1-1.3s1.8-1.3,4.1-1.3c2.3,0,4.1,0.6,4.1,1.3
						C-1514.5,2458.2-1516.3,2458.8-1518.6,2458.8z"/>
				</g>
			</g>
		</g>
	</g>
</g>
</svg>
