<?xml version="1.0" encoding="utf-8"?>
<!-- Generator: Adobe Illustrator 19.0.0, SVG Export Plug-In . SVG Version: 6.00 Build 0)  -->
<svg version="1.1" id="Layer_1" xmlns="http://www.w3.org/2000/svg" xmlns:xlink="http://www.w3.org/1999/xlink" x="0px" y="0px"
	 viewBox="-412 290.3 16 16" style="enable-background:new -412 290.3 16 16;" xml:space="preserve">
<style type="text/css">
	.st0{fill:#2EBA00;}
	.st1{fill:#FFFFFF;}
	.st2{fill:#7A7A7A;}
	.st3{enable-background:new    ;}
	.st4{clip-path:url(#SVGID_2_);enable-background:new    ;}
	.st5{fill:#FDB40D;}
	.st6{clip-path:url(#SVGID_4_);enable-background:new    ;}
	.st7{fill:#FDB50D;}
	.st8{fill:#FDB30C;}
	.st9{fill:#FDB10C;}
	.st10{fill:#FDB30D;}
	.st11{clip-path:url(#SVGID_6_);enable-background:new    ;}
	.st12{clip-path:url(#SVGID_8_);enable-background:new    ;}
	.st13{fill:#FDB00B;}
	.st14{clip-path:url(#SVGID_10_);enable-background:new    ;}
	.st15{clip-path:url(#SVGID_12_);enable-background:new    ;}
	.st16{clip-path:url(#SVGID_14_);enable-background:new    ;}
	.st17{clip-path:url(#SVGID_16_);enable-background:new    ;}
	.st18{fill:#FCCC14;}
	.st19{clip-path:url(#SVGID_18_);enable-background:new    ;}
	.st20{clip-path:url(#SVGID_20_);enable-background:new    ;}
	.st21{clip-path:url(#SVGID_22_);enable-background:new    ;}
	.st22{clip-path:url(#SVGID_24_);enable-background:new    ;}
	.st23{clip-path:url(#SVGID_26_);enable-background:new    ;}
	.st24{clip-path:url(#SVGID_28_);enable-background:new    ;}
	.st25{clip-path:url(#SVGID_30_);enable-background:new    ;}
	.st26{clip-path:url(#SVGID_32_);enable-background:new    ;}
</style>
<polygon class="st0" points="-397.9,292.4 -399.2,291.1 -399.8,290.6 -399.8,290.6 -409.5,290.6 -409.5,304.3 -397.3,304.3 
	-397.3,293 -397.3,293 "/>
<polygon class="st1" points="-399.8,291.1 -408.9,291.1 -408.9,303.8 -397.9,303.8 -397.9,293 -398.6,293 -399.8,293 "/>
<polygon class="st2" points="-399.6,294.1 -400.9,292.8 -401.5,292.3 -401.5,292.3 -411.1,292.3 -411.1,306 -399,306 -399,294.8 
	-399,294.7 "/>
<polygon class="st1" points="-401.5,292.8 -410.6,292.8 -410.6,305.5 -399.6,305.5 -399.6,294.8 -400.3,294.8 -401.5,294.8 "/>
<g>
	<g>
		<g class="st3">
			<g class="st3">
				<defs>
					<path id="SVGID_1_" class="st3" d="M-402.1,298.8l-0.6-0.1c0,0,0.1,0,0.1,0L-402.1,298.8C-402,298.9-402.1,298.9-402.1,298.8z"
						/>
				</defs>
				<clipPath id="SVGID_2_">
					<use xlink:href="#SVGID_1_"  style="overflow:visible;"/>
				</clipPath>
				<g class="st4">
					<path class="st5" d="M-402.1,298.8l-0.6-0.1c0,0,0.1,0,0.1,0L-402.1,298.8C-402,298.9-402.1,298.9-402.1,298.8"/>
				</g>
			</g>
			<g class="st3">
				<defs>
					<path id="SVGID_3_" class="st3" d="M-403.3,302l-0.6-0.1c0.1-0.1,0.1-0.3,0.1-0.5l0.6,0.1C-403.3,301.7-403.3,301.9-403.3,302z
						"/>
				</defs>
				<clipPath id="SVGID_4_">
					<use xlink:href="#SVGID_3_"  style="overflow:visible;"/>
				</clipPath>
				<g class="st6">
					<path class="st7" d="M-403.3,302l-0.6-0.1c0,0,0,0,0,0L-403.3,302C-403.3,302-403.3,302-403.3,302"/>
					<path class="st5" d="M-403.3,302l-0.6-0.1c0,0,0,0,0-0.1L-403.3,302C-403.3,301.9-403.3,301.9-403.3,302"/>
					<path class="st8" d="M-403.3,301.9l-0.6-0.1c0,0,0-0.1,0-0.1L-403.3,301.9C-403.3,301.8-403.3,301.9-403.3,301.9"/>
					<path class="st9" d="M-403.3,301.8l-0.6-0.1c0-0.1,0-0.2,0-0.3l0.6,0.1C-403.3,301.6-403.3,301.7-403.3,301.8"/>
				</g>
			</g>
			<g>
				<polygon class="st10" points="-403.3,301.5 -403.9,301.4 -403.8,300.5 -403.2,300.6 				"/>
			</g>
			<g class="st3">
				<defs>
					<path id="SVGID_5_" class="st3" d="M-403.2,300.6l-0.6-0.1c0-0.7,0.3-1.1,0.6-1.2l0.6,0.1C-403,299.5-403.2,299.9-403.2,300.6z
						"/>
				</defs>
				<clipPath id="SVGID_6_">
					<use xlink:href="#SVGID_5_"  style="overflow:visible;"/>
				</clipPath>
				<g class="st11">
					<path class="st9" d="M-403.2,300.6l-0.6-0.1c0-0.2,0-0.3,0-0.4l0.6,0.1C-403.2,300.3-403.2,300.4-403.2,300.6"/>
					<path class="st8" d="M-403.2,300.1l-0.6-0.1c0-0.1,0-0.2,0.1-0.3l0.6,0.1C-403.1,299.9-403.2,300-403.2,300.1"/>
					<path class="st5" d="M-403.1,299.9l-0.6-0.1c0-0.1,0.1-0.1,0.1-0.2l0.6,0.1C-403,299.7-403.1,299.8-403.1,299.9"/>
					<path class="st7" d="M-403,299.6l-0.6-0.1c0.1-0.1,0.2-0.2,0.4-0.3l0.6,0.1C-402.8,299.4-402.9,299.5-403,299.6"/>
				</g>
			</g>
			<g class="st3">
				<defs>
					<path id="SVGID_7_" class="st3" d="M-402.6,299.4l-0.6-0.1c-0.3-0.1-0.5-0.5-0.5-1.2l0.6,0.1
						C-403.2,298.9-403,299.3-402.6,299.4z"/>
				</defs>
				<clipPath id="SVGID_8_">
					<use xlink:href="#SVGID_7_"  style="overflow:visible;"/>
				</clipPath>
				<g class="st12">
					<path class="st13" d="M-402.6,299.4l-0.6-0.1c-0.3-0.1-0.5-0.5-0.5-1.2l0.6,0.1C-403.2,298.9-403,299.3-402.6,299.4"/>
					<polyline class="st9" points="-403.2,298.2 -403.8,298.1 -403.8,298.1 -403.2,298.2 -403.2,298.2 					"/>
				</g>
			</g>
			<g>
				<polygon class="st10" points="-403.2,298.2 -403.8,298.1 -403.8,297.2 -403.2,297.3 				"/>
			</g>
			<g>
				<polygon class="st10" points="-403.8,302.8 -404.4,302.7 -404.3,302 -403.7,302.1 				"/>
			</g>
			<g class="st3">
				<defs>
					<path id="SVGID_9_" class="st3" d="M-403.7,302.1l-0.6-0.1c0.2,0,0.3-0.1,0.4-0.1l0.6,0.1C-403.4,302-403.5,302.1-403.7,302.1z
						"/>
				</defs>
				<clipPath id="SVGID_10_">
					<use xlink:href="#SVGID_9_"  style="overflow:visible;"/>
				</clipPath>
				<g class="st14">
					<path class="st5" d="M-403.7,302.1l-0.6-0.1c0,0,0,0,0.1,0L-403.7,302.1C-403.7,302.1-403.7,302.1-403.7,302.1"/>
					<path class="st7" d="M-403.7,302.1l-0.6-0.1c0.2,0,0.3-0.1,0.3-0.1l0.6,0.1C-403.4,302-403.5,302.1-403.7,302.1"/>
					<polyline class="st5" points="-403.3,302 -404,301.9 -403.9,301.9 -403.3,302 -403.3,302 					"/>
				</g>
			</g>
			<g class="st3">
				<defs>
					<path id="SVGID_11_" class="st3" d="M-403.7,295.8l-0.6-0.1c0.1,0,0.2,0,0.2,0l0.6,0.1C-403.5,295.8-403.6,295.8-403.7,295.8z"
						/>
				</defs>
				<clipPath id="SVGID_12_">
					<use xlink:href="#SVGID_11_"  style="overflow:visible;"/>
				</clipPath>
				<g class="st15">
					<path class="st5" d="M-403.7,295.8l-0.6-0.1c0.1,0,0.2,0,0.2,0l0.6,0.1C-403.5,295.8-403.6,295.8-403.7,295.8"/>
				</g>
			</g>
			<g class="st3">
				<defs>
					<path id="SVGID_13_" class="st3" d="M-403.9,295.7l0.6,0.1c0,0-0.1,0-0.2,0l-0.6-0.1C-404,295.7-404,295.7-403.9,295.7z"/>
				</defs>
				<clipPath id="SVGID_14_">
					<use xlink:href="#SVGID_13_"  style="overflow:visible;"/>
				</clipPath>
				<g class="st16">
					<path class="st5" d="M-403.5,295.8l-0.6-0.1c0.1,0,0.1,0,0.2,0l0.6,0.1C-403.3,295.8-403.4,295.8-403.5,295.8"/>
				</g>
			</g>
			<g class="st3">
				<defs>
					<path id="SVGID_15_" class="st3" d="M-404.2,296.5l0.6,0.1c0.3,0,0.5,0.2,0.5,0.7l-0.6-0.1C-403.8,296.8-404,296.6-404.2,296.5
						z"/>
				</defs>
				<clipPath id="SVGID_16_">
					<use xlink:href="#SVGID_15_"  style="overflow:visible;"/>
				</clipPath>
				<g class="st17">
					<polyline class="st9" points="-403.2,297.3 -403.8,297.2 -403.8,297.2 -403.2,297.3 -403.2,297.3 					"/>
					<path class="st13" d="M-403.2,297.3l-0.6-0.1c0-0.5-0.2-0.7-0.5-0.7l0.6,0.1C-403.3,296.6-403.2,296.8-403.2,297.3"/>
				</g>
			</g>
			<g>
				<path class="st18" d="M-402,298.9l0.1,0.9c-0.4,0-0.6,0.3-0.6,0.7l0,0.9c0,0.5-0.1,0.9-0.3,1.1c-0.2,0.2-0.6,0.3-1,0.3l0-0.7
					c0.2,0,0.3-0.1,0.4-0.1c0.1-0.1,0.1-0.3,0.1-0.5l0-0.9c0-0.7,0.3-1.1,0.6-1.2c-0.3-0.1-0.5-0.5-0.5-1.2l0-0.9
					c0-0.5-0.2-0.7-0.5-0.7l0-0.8c0.1,0,0.2,0,0.2,0c0.3,0,0.6,0.1,0.7,0.3c0.2,0.3,0.2,0.7,0.2,1.2l0,0.9
					C-402.6,298.7-402.3,298.9-402,298.9z"/>
			</g>
			<g>
				<polygon class="st10" points="-403.7,296.6 -404.3,296.5 -404.3,295.7 -403.7,295.8 				"/>
			</g>
		</g>
		<g class="st3">
			<g>
				<path class="st18" d="M-406.1,302.9L-406.1,302.9L-406.1,302.9C-406.1,302.8-406.1,302.8-406.1,302.9L-406.1,302.9z"/>
			</g>
			<g class="st3">
				<defs>
					<path id="SVGID_17_" class="st3" d="M-406.1,302.8l-0.6-0.1c0,0,0.1,0,0.1,0L-406.1,302.8
						C-406.1,302.8-406.1,302.8-406.1,302.8z"/>
				</defs>
				<clipPath id="SVGID_18_">
					<use xlink:href="#SVGID_17_"  style="overflow:visible;"/>
				</clipPath>
				<g class="st19">
					<path class="st5" d="M-406.1,302.8l-0.6-0.1c0,0,0.1,0,0.1,0L-406.1,302.8C-406.1,302.8-406.1,302.8-406.1,302.8"/>
				</g>
			</g>
			<g>
				<polygon class="st10" points="-406.1,302.9 -406.7,302.9 -406.7,302.8 -406.1,302.8 				"/>
			</g>
			<g class="st3">
				<defs>
					<path id="SVGID_19_" class="st3" d="M-406.2,302.2l-0.6-0.1c0,0,0.1,0,0.1,0l0.6,0.1C-406.2,302.2-406.2,302.2-406.2,302.2z"/>
				</defs>
				<clipPath id="SVGID_20_">
					<use xlink:href="#SVGID_19_"  style="overflow:visible;"/>
				</clipPath>
				<g class="st20">
					<path class="st5" d="M-406.2,302.2l-0.6-0.1c0,0,0.1,0,0.1,0l0.6,0.1C-406.2,302.2-406.2,302.2-406.2,302.2"/>
				</g>
			</g>
			<g class="st3">
				<defs>
					<path id="SVGID_21_" class="st3" d="M-406.6,296.7l0.6,0.1c0,0,0,0,0.1,0L-406.6,296.7C-406.6,296.7-406.6,296.7-406.6,296.7z"
						/>
				</defs>
				<clipPath id="SVGID_22_">
					<use xlink:href="#SVGID_21_"  style="overflow:visible;"/>
				</clipPath>
				<g class="st21">
					<path class="st13" d="M-405.9,296.7l-0.6-0.1c0,0,0,0-0.1,0L-405.9,296.7C-406,296.7-406,296.7-405.9,296.7"/>
				</g>
			</g>
			<g class="st3">
				<defs>
					<path id="SVGID_23_" class="st3" d="M-406.4,302.8l-0.6-0.1c-0.3,0-0.6-0.1-0.7-0.3c-0.2-0.3-0.2-0.5-0.2-1.1l0.6,0.1
						c0,0.6,0,0.8,0.2,1.1C-407,302.7-406.7,302.8-406.4,302.8z"/>
				</defs>
				<clipPath id="SVGID_24_">
					<use xlink:href="#SVGID_23_"  style="overflow:visible;"/>
				</clipPath>
				<g class="st22">
					<path class="st13" d="M-406.4,302.8l-0.6-0.1c-0.3,0-0.6-0.1-0.7-0.3c-0.2-0.3-0.2-0.5-0.2-1l0.6,0.1c0,0.5,0,0.7,0.2,1
						C-407,302.7-406.7,302.8-406.4,302.8"/>
					<path class="st9" d="M-407.3,301.6l-0.6-0.1c0,0,0-0.1,0-0.1l0.6,0.1C-407.3,301.5-407.3,301.5-407.3,301.6"/>
				</g>
			</g>
			<g>
				<polygon class="st10" points="-407.3,301.5 -407.9,301.4 -407.9,300.5 -407.3,300.6 				"/>
			</g>
			<g class="st3">
				<defs>
					<path id="SVGID_25_" class="st3" d="M-407,296.4l-0.6-0.1c0.2-0.3,0.6-0.4,1-0.4l0.6,0.1C-406.4,295.9-406.7,296.1-407,296.4z"
						/>
				</defs>
				<clipPath id="SVGID_26_">
					<use xlink:href="#SVGID_25_"  style="overflow:visible;"/>
				</clipPath>
				<g class="st23">
					<path class="st7" d="M-407,296.4l-0.6-0.1c0.2-0.3,0.5-0.4,0.8-0.4l0.6,0.1C-406.5,296-406.7,296.1-407,296.4"/>
					<path class="st5" d="M-406.1,295.9l-0.6-0.1c0.1,0,0.1,0,0.2,0l0.6,0.1C-406,295.9-406.1,295.9-406.1,295.9"/>
				</g>
			</g>
			<g>
				<polygon class="st10" points="-407.3,298.3 -407.9,298.2 -407.9,297.4 -407.3,297.5 				"/>
			</g>
			<g class="st3">
				<defs>
					<path id="SVGID_27_" class="st3" d="M-407.3,297.5l-0.6-0.1c0-0.5,0.1-0.9,0.3-1.1l0.6,0.1C-407.2,296.6-407.3,297-407.3,297.5
						z"/>
				</defs>
				<clipPath id="SVGID_28_">
					<use xlink:href="#SVGID_27_"  style="overflow:visible;"/>
				</clipPath>
				<g class="st24">
					<path class="st9" d="M-407.3,297.5l-0.6-0.1c0-0.2,0-0.4,0.1-0.5l0.6,0.1C-407.3,297.1-407.3,297.3-407.3,297.5"/>
					<path class="st8" d="M-407.2,296.9l-0.6-0.1c0-0.1,0-0.2,0.1-0.2l0.6,0.1C-407.2,296.8-407.2,296.9-407.2,296.9"/>
					<path class="st5" d="M-407.2,296.7l-0.6-0.1c0-0.1,0.1-0.1,0.1-0.2l0.6,0.1C-407.1,296.6-407.2,296.6-407.2,296.7"/>
					<path class="st7" d="M-407.1,296.5l-0.6-0.1c0-0.1,0.1-0.1,0.1-0.2l0.6,0.1C-407,296.4-407.1,296.5-407.1,296.5"/>
				</g>
			</g>
			<g class="st3">
				<defs>
					<path id="SVGID_29_" class="st3" d="M-408.3,299.7l0.6,0.1c0.3,0,0.4,0.3,0.4,0.8l-0.6-0.1C-407.9,300-408,299.7-408.3,299.7z"
						/>
				</defs>
				<clipPath id="SVGID_30_">
					<use xlink:href="#SVGID_29_"  style="overflow:visible;"/>
				</clipPath>
				<g class="st25">
					<polyline class="st9" points="-407.3,300.6 -407.9,300.5 -407.9,300.5 -407.3,300.6 -407.3,300.6 					"/>
					<path class="st13" d="M-407.3,300.6l-0.6-0.1c0-0.5-0.1-0.8-0.4-0.8l0.6,0.1C-407.4,299.8-407.3,300.1-407.3,300.6"/>
				</g>
			</g>
			<g>
				<polygon class="st10" points="-407.7,299.8 -408.3,299.7 -408.3,299 -407.7,299.1 				"/>
			</g>
			<g>
				<path class="st18" d="M-407.3,297.5c0-0.5,0.1-0.9,0.3-1.1c0.2-0.3,0.6-0.4,1-0.4l0,0.8c0,0-0.1,0-0.1,0c-0.3,0-0.4,0.3-0.5,0.7
					l0,0.8c0,0.7-0.3,1.1-0.6,1.2c0.3,0.1,0.5,0.5,0.5,1.2l0,0.8c0,0.3,0.1,0.5,0.1,0.5c0.1,0.3,0.2,0.3,0.4,0.3l0,0.6
					c-0.4,0-0.8-0.1-0.9-0.3c-0.2-0.3-0.2-0.5-0.2-1.1l0-0.9c0-0.5-0.1-0.8-0.5-0.8l0-0.7c0.3,0,0.4-0.3,0.4-0.8L-407.3,297.5z"/>
			</g>
			<g class="st3">
				<defs>
					<path id="SVGID_31_" class="st3" d="M-407.7,299.1l-0.6-0.1c0.3,0,0.4-0.3,0.4-0.8l0.6,0.1
						C-407.3,298.8-407.4,299.1-407.7,299.1z"/>
				</defs>
				<clipPath id="SVGID_32_">
					<use xlink:href="#SVGID_31_"  style="overflow:visible;"/>
				</clipPath>
				<g class="st26">
					<path class="st5" d="M-407.7,299.1l-0.6-0.1c0,0,0,0,0,0L-407.7,299.1C-407.7,299.1-407.7,299.1-407.7,299.1"/>
					<path class="st7" d="M-407.7,299.1l-0.6-0.1c0.1,0,0.2-0.1,0.2-0.1l0.6,0.1C-407.5,299-407.6,299.1-407.7,299.1"/>
					<path class="st5" d="M-407.4,298.9l-0.6-0.1c0,0,0-0.1,0-0.1L-407.4,298.9C-407.4,298.9-407.4,298.9-407.4,298.9"/>
					<path class="st8" d="M-407.4,298.8l-0.6-0.1c0,0,0-0.1,0-0.1l0.6,0.1C-407.4,298.7-407.4,298.8-407.4,298.8"/>
					<path class="st9" d="M-407.4,298.7l-0.6-0.1c0-0.1,0-0.3,0-0.4l0.6,0.1C-407.3,298.4-407.3,298.6-407.4,298.7"/>
				</g>
			</g>
		</g>
	</g>
</g>
</svg>
