<?xml version="1.0" encoding="utf-8"?>
<!-- Generator: Adobe Illustrator 19.0.0, SVG Export Plug-In . SVG Version: 6.00 Build 0)  -->
<svg version="1.1" id="Layer_2" xmlns="http://www.w3.org/2000/svg" xmlns:xlink="http://www.w3.org/1999/xlink" x="0px" y="0px"
	 viewBox="-287 278.5 38 38" style="enable-background:new -287 278.5 38 38;" xml:space="preserve">
<style type="text/css">
	.st0{display:none;fill:#FCD116;}
	.st1{fill:#0078D7;}
	.st2{fill:#A0A1A2;}
</style>
<rect x="-281.5" y="280" class="st0" width="26.8" height="34.9"/>
<g id="paths">
	<g id="VHD">
		<g id="group444-904_5_" transform="translate(1355.43,-2200.23)">
			<g id="shape445-905_5_" transform="translate(11.1,-17.1022)">
				<title>Sheet.445</title>
				<ellipse class="st1" cx="-1634.5" cy="2511.7" rx="1.7" ry="1.7"/>
			</g>
			<g id="shape446-907_5_" transform="translate(12.0503,-15.4965)">
				<title>Sheet.446</title>
				<ellipse class="st1" cx="-1635.5" cy="2513.1" rx="0.6" ry="0.6"/>
			</g>
			<g id="shape447-909_5_" transform="translate(9.516,-18.0607)">
				<title>Sheet.447</title>
				<ellipse class="st1" cx="-1635.9" cy="2512.7" rx="0.6" ry="0.6"/>
			</g>
			<g id="shape448-911_5_" transform="translate(10.2068,-16.2472)">
				<title>Sheet.448</title>
				<path class="st1" d="M-1636.2,2512.5c-0.2,0.2-0.2,0.6,0,0.9c0.1,0.1,0.3,0.2,0.4,0.2s0.3-0.1,0.4-0.2c0.1-0.1,0.2-0.3,0.2-0.4
					c0-0.2-0.1-0.3-0.2-0.4C-1635.5,2512.3-1635.9,2512.3-1636.2,2512.5z"/>
			</g>
			<g id="shape449-913_5_" transform="translate(10.2075,-19.863)">
				<title>Sheet.449</title>
				<path class="st1" d="M-1635.7,2513c0.2,0,0.3-0.1,0.4-0.2c0.1-0.1,0.2-0.3,0.2-0.4c0-0.2-0.1-0.3-0.2-0.4
					c-0.2-0.2-0.6-0.2-0.9,0c-0.2,0.2-0.2,0.6,0,0.9C-1636,2512.9-1635.9,2513-1635.7,2513z"/>
			</g>
			<g id="shape450-915_5_" transform="translate(3.1275,-3.14325)">
				<title>Sheet.450</title>
				<ellipse class="st1" cx="-1636.1" cy="2514.3" rx="1.5" ry="1.5"/>
			</g>
			<g id="shape451-917_5_" transform="translate(13.791,-19.863)">
				<title>Sheet.451</title>
				<path class="st1" d="M-1635.1,2513c0.2,0,0.3-0.1,0.4-0.2c0.1-0.1,0.2-0.3,0.2-0.4c0-0.2-0.1-0.3-0.2-0.4
					c-0.2-0.2-0.6-0.2-0.9,0c-0.2,0.2-0.2,0.6,0,0.9C-1635.4,2512.9-1635.3,2513-1635.1,2513z"/>
			</g>
			<g id="shape452-919_5_" transform="translate(12.0503,-20.613)">
				<title>Sheet.452</title>
				<ellipse class="st1" cx="-1635.5" cy="2512.2" rx="0.6" ry="0.6"/>
			</g>
			<g id="shape453-921_9_">
				<title>Sheet.453</title>
				<path class="st2" d="M-1609.7,2479.2h-27.4c-0.5,0-0.9,0.4-0.9,1v35.1c0,0.5,0.4,1,0.9,1h27.4c0.5,0,1-0.4,1-1v-35.1
					C-1608.8,2479.7-1609.2,2479.2-1609.7,2479.2z M-1636.9,2481c0-0.5,0.4-0.8,0.8-0.8s0.8,0.4,0.8,0.8c0,0.5-0.4,0.8-0.8,0.8
					S-1636.9,2481.4-1636.9,2481z M-1630.1,2512.7L-1630.1,2512.7L-1630.1,2512.7c-0.6,1.1-1.7,1.8-2.9,1.8c-1.8,0-3.3-1.5-3.3-3.4
					c0-0.9,0.4-1.8,1-2.4l7.1-7.2c0.3-0.3,0.7-0.5,1.2-0.5c0.9,0,1.7,0.8,1.7,1.7c0,0.3-0.1,0.5-0.2,0.8l0,0L-1630.1,2512.7
					C-1630,2512.7-1630,2512.7-1630.1,2512.7z M-1623.5,2506.3c-0.7,0-1.4-0.1-2.1-0.2l1.1-2.1c0-0.1,0-0.1,0.1-0.2
					c0.2-0.4,0.2-0.7,0.2-1.1c0-1.5-1.2-2.8-2.7-2.8c-0.7,0-1.4,0.3-2,0.8l-2.4,2.4c-2.3-2.1-3.8-5.2-3.8-8.6
					c0-6.5,5.2-11.7,11.6-11.7s11.6,5.2,11.6,11.7C-1611.9,2501.1-1617.1,2506.3-1623.5,2506.3z M-1610.9,2515.1
					c-0.5,0-0.8-0.4-0.8-0.8c0-0.5,0.4-0.8,0.8-0.8c0.5,0,0.8,0.4,0.8,0.8C-1610.1,2514.7-1610.4,2515.1-1610.9,2515.1z
					 M-1610.9,2481.8c-0.5,0-0.8-0.4-0.8-0.8c0-0.5,0.4-0.8,0.8-0.8c0.5,0,0.8,0.4,0.8,0.8S-1610.4,2481.8-1610.9,2481.8z"/>
			</g>
			<g id="shape454-923_5_" transform="translate(13.791,-16.2472)">
				<title>Sheet.454</title>
				<path class="st1" d="M-1635.6,2512.5c-0.2,0.2-0.2,0.6,0,0.9c0.1,0.1,0.3,0.2,0.4,0.2s0.3-0.1,0.4-0.2c0.1-0.1,0.2-0.3,0.2-0.4
					c0-0.2-0.1-0.3-0.2-0.4C-1634.9,2512.3-1635.3,2512.3-1635.6,2512.5z"/>
			</g>
			<g id="shape455-925_5_" transform="translate(7.83675,-13.8682)">
				<title>Sheet.455</title>
				<path class="st1" d="M-1631.3,2503c-3,0-5.4,2.5-5.4,5.5s2.4,5.5,5.4,5.5s5.5-2.5,5.5-5.5
					C-1625.9,2505.4-1628.3,2503-1631.3,2503z M-1631.3,2512.9c-2.4,0-4.4-2-4.4-4.4s1.9-4.4,4.4-4.4c2.4,0,4.4,2,4.4,4.4
					S-1628.9,2512.9-1631.3,2512.9z"/>
			</g>
			<g id="shape456-927_5_" transform="translate(14.583,-18.0555)">
				<title>Sheet.456</title>
				<ellipse class="st1" cx="-1635.1" cy="2512.7" rx="0.6" ry="0.6"/>
			</g>
		</g>
	</g>
</g>
</svg>
