<?xml version="1.0" encoding="utf-8"?>
<!-- Generator: Adobe Illustrator 19.0.0, SVG Export Plug-In . SVG Version: 6.00 Build 0)  -->
<svg version="1.1" id="Layer_1" xmlns="http://www.w3.org/2000/svg" xmlns:xlink="http://www.w3.org/1999/xlink" x="0px" y="0px"
	 viewBox="-395 273.3 50 50" style="enable-background:new -395 273.3 50 50;" xml:space="preserve">
<style type="text/css">
	.st0{fill:#FCD116;}
	.st1{fill:#A0A1A2;}
</style>
<path class="st0" d="M-355.9,296.5h-28.2c-1.2,0-2.3,1-2.3,2.5v10.7l3.9,1.1v-10.4h24.9v10.3l3.9-1.1V299
	C-353.7,297.5-354.8,296.5-355.9,296.5z"/>
<rect x="-372" y="289.7" class="st0" width="3.9" height="10.4"/>
<path class="st1" d="M-363.7,273.3h-12.6c-1.3,0-2.4,1.1-2.4,2.4v11.7c0,1.3,1.1,2.4,2.4,2.4h12.5c1.3,0,2.4-1.1,2.4-2.4v-11.7
	C-361.3,274.4-362.4,273.3-363.7,273.3z"/>
<path class="st1" d="M-378.2,306.7h-12.5c-1.3,0-2.4,1.1-2.4,2.4v11.7c0,1.3,1.1,2.4,2.4,2.4h12.5c1.3,0,2.4-1.1,2.4-2.4v-11.7
	C-375.8,307.8-376.9,306.7-378.2,306.7z"/>
<path class="st1" d="M-349.3,306.7h-12.5c-1.3,0-2.4,1.1-2.4,2.4v11.7c0,1.3,1.1,2.4,2.4,2.4h12.5c1.3,0,2.4-1.1,2.4-2.4v-11.7
	C-346.8,307.8-347.9,306.7-349.3,306.7z"/>
</svg>
