<?xml version="1.0" encoding="utf-8"?>
<!-- Generator: Adobe Illustrator 19.0.0, SVG Export Plug-In . SVG Version: 6.00 Build 0)  -->
<svg version="1.1" id="Layer_1" xmlns="http://www.w3.org/2000/svg" xmlns:xlink="http://www.w3.org/1999/xlink" x="0px" y="0px"
	 viewBox="-178 372.3 50 50" style="enable-background:new -178 372.3 50 50;" xml:space="preserve">
<style type="text/css">
	.st0{fill:#006699;}
	.st1{fill:#00CC00;}
	.st2{fill:#0078D7;}
	.st3{fill:#0099CC;}
</style>
<g id="paths">
	<g id="Service_bus">
		<g>
			<g id="shape180-302_1_" transform="translate(5.90475,0)">
				<path class="st0" d="M-160.9,403.3h-4.3v8.9h-3.6l5.8,8l5.8-8h-3.7C-160.9,412.2-160.9,403.3-160.9,403.3z"/>
			</g>
			<g id="shape181-304_1_" transform="translate(6.30375,-23.214)">
				<rect x="-168.6" y="413.3" class="st1" width="10.4" height="3"/>
			</g>
			<g id="shape182-306_1_" transform="translate(6.30375,-19.4317)">
				<rect x="-168.6" y="413.9" class="st1" width="10.4" height="3"/>
			</g>
			<g id="shape183-308_1_" transform="translate(6.30375,-15.6532)">
				<rect x="-168.6" y="414.6" class="st1" width="10.4" height="3"/>
			</g>
			<g id="group184-310_1_" transform="translate(3.9968E-015,-8.094)">
				<g id="shape185-311_1_" transform="translate(0.00075,-6.618)">
					<path class="st2" d="M-156.1,392.9h-2.4h-7.3h-1.6h-1c-0.4,0-1.3,0-1.3,1.5l-0.1,23.3h4.4v-20.3h5.9v5.9h4.5v-9.1
						C-155,393-155.7,392.9-156.1,392.9z"/>
				</g>
				<g id="shape186-313_1_">
					<path class="st2" d="M-165.4,407h-4.4v10.4c0,0.3,1.3,1.4,1.6,1.4h1.5h5.8v-4.4h-4.4L-165.4,407z"/>
				</g>
			</g>
			<g id="shape187-315_1_" transform="translate(13.866,-8.0955)">
				<path class="st3" d="M-155.1,405.5h-1.3c-0.7-8.9-5-13.2-10.9-14.4v4.2c4.4,1.5,6.1,5.8,6.2,11.5l-0.1,2.9l5.9-0.1
					c1.6,0,2.8,0.4,2.8,2v2.6h-14.8v4.4h17.5c0.3,0,1.7-1.2,1.7-1.5v-0.6v-2v-2.7C-148.1,408-151.3,405.5-155.1,405.5z"/>
			</g>
		</g>
	</g>
</g>
</svg>
