<?xml version="1.0" encoding="utf-8"?>
<!-- Generator: Adobe Illustrator 19.0.0, SVG Export Plug-In . SVG Version: 6.00 Build 0)  -->
<svg version="1.1" id="Layer_1" xmlns="http://www.w3.org/2000/svg" xmlns:xlink="http://www.w3.org/1999/xlink" x="0px" y="0px"
	 viewBox="438 140 512 512" style="enable-background:new 438 140 512 512;" xml:space="preserve">
<style type="text/css">
	.st0{fill:#FF2F35;}
</style>
<g>
	<path class="st0" d="M573.9,373.3l-118-132.8c-1-1.2-1.2-2.4-0.7-3.8c0.5-1.4,1.5-2,3-2h37.4c0.4,0,0.9,0.1,1.5,0.3
		c0.6,0.2,1,0.5,1.2,0.9l80,90.8v-88.4c0-2.3,1.2-3.5,3.5-3.5h29.9c0.4,0,0.9,0.1,1.5,0.3c0.6,0.2,1,0.5,1.2,0.9l81.5,91.1v-88.7
		c0-2.3,1.2-3.5,3.5-3.5h30.2c2.3,0,3.5,1.2,3.5,3.5v140.4c0,2.3-1.2,3.5-3.5,3.5h-16.8c-3.7,0-7.3-0.8-11-2.5
		c-3.7-1.6-7-3.7-9.9-6.2l-76.3-85.5v90.8c0,2.3-1.2,3.5-3.5,3.5h-16.8c-3.7,0-7.4-0.8-11.2-2.3C580.1,378.1,576.8,376,573.9,373.3z
		"/>
	<path class="st0" d="M772,234.7h30.2c2.3,0,3.5,1.2,3.5,3.5v115.1h125.9c2.1,0,3.2,1.2,3.2,3.5c0,1.5-0.8,3.7-2.3,6.5
		c-1.5,2.8-3.4,5.6-5.7,8.4c-2.2,2.8-4.6,5.2-7.1,7.3c-2.5,2-4.7,3-6.7,3H772c-2.3,0-3.5-1.2-3.5-3.5V238.2
		C768.5,235.8,769.6,234.7,772,234.7z"/>
</g>
<g>
	<path class="st0" d="M468.3,571.4V426.2c0-2.4,1.1-3.6,3.3-3.6h150.9c11.6,0,21.8,2.5,30.6,7.5c8.8,5,16.1,11.2,22,18.6
		c5.9,7.4,10.3,15.3,13.2,23.7c2.9,8.4,4.3,16,4.3,22.8v7.2c0,6.8-1.5,14.4-4.3,22.8c-2.9,8.4-7.3,16.3-13.2,23.7
		c-5.9,7.4-13.3,13.6-22,18.6c-8.8,5-19,7.5-30.6,7.5H471.6C469.4,575,468.3,573.8,468.3,571.4z M613.2,545.3c6.4,0,12.2-1.3,17.3-4
		c5.1-2.7,9.4-6.2,12.9-10.7c3.5-4.4,6.2-9.3,8.1-14.7c1.9-5.4,2.9-10.8,2.9-16.2v-1.5c0-5.4-1-10.8-2.9-16.4
		c-1.9-5.5-4.6-10.4-8.1-14.8c-3.5-4.4-7.8-8-12.9-10.7c-5.1-2.7-10.9-4-17.3-4H506.4v93H613.2z"/>
	<path class="st0" d="M763.2,575H732c-2.4,0-3.6-1.2-3.6-3.6v-76.2c0-6.8,1.4-14.4,4.4-22.8c2.9-8.4,7.3-16.3,13.2-23.7
		c5.9-7.4,13.2-13.6,21.9-18.6c8.7-5,18.9-7.5,30.8-7.5h126.3c2.4,0,3.6,1.2,3.6,3.6c0,1.6-0.8,3.9-2.4,6.8
		c-1.6,2.9-3.6,5.8-5.8,8.7c-2.3,2.9-4.8,5.4-7.4,7.5c-2.6,2.1-4.9,3.1-6.9,3.1h-98.1c-10.4,0-19,3.2-25.6,9.5
		c-6.7,6.3-11.3,13.8-13.7,22.3h139.2c2.4,0,3.6,1.2,3.6,3.6c0,1.6-0.8,3.9-2.4,6.8c-1.6,2.9-3.6,5.8-5.9,8.7
		c-2.3,2.9-4.8,5.4-7.3,7.5c-2.6,2.1-4.9,3.1-6.9,3.1H766.8v57.6C766.8,573.8,765.6,575,763.2,575z"/>
</g>
</svg>
