<?xml version="1.0" encoding="utf-8"?>
<!-- Generator: Adobe Illustrator 19.0.0, SVG Export Plug-In . SVG Version: 6.00 Build 0)  -->
<svg version="1.1" xmlns="http://www.w3.org/2000/svg" xmlns:xlink="http://www.w3.org/1999/xlink" x="0px" y="0px"
	 viewBox="-286 377.2 38.8 38.8" style="enable-background:new -286 377.2 38.8 38.8;" xml:space="preserve">
<style type="text/css">
	.st0{fill:#FFCC00;}
	.st1{fill:#00CC00;}
	.st2{fill:#0066CC;stroke:#004D99;stroke-width:0.25;stroke-miterlimit:10;}
</style>
<g id="Layer_2">
	<rect x="-269.6" y="385.2" class="st0" width="16.8" height="14"/>
</g>
<g id="Layer_1" xmlns:ev="http://www.w3.org/2001/xml-events" xmlns:v="http://schemas.microsoft.com/visio/2003/SVGExtensions/">
	<v:documentProperties  v:langID="1033" v:viewMarkup="false">
		<v:userDefs>
			<v:ud  v:val="VT0(0):26" v:prompt="" v:nameU="visTLShowProps"></v:ud>
		</v:userDefs>
	</v:documentProperties>
	<g>
		<g id="group1475-1" transform="translate(0.75,-0.75)">
			<g id="shape1476-2">
				<path class="st1" d="M-276.3,406.3v-12.6c-5.5,0.7-9.7,5.4-9.7,11.1c0,6.2,5,11.2,11.2,11.2c5.7,0,10.4-4.2,11.1-9.7H-276.3z
					 M-282.3,401.8h3v3h-3V401.8z M-276.3,413.8h-3v-3h3V413.8z M-267.3,410.8h-3v-3h3V410.8z"/>
			</g>
			<g id="shape1477-4" transform="translate(11.175,-11.175)">
				<path class="st2" d="M-272.9,389.8c-7.4,0-13.1,5.7-13.1,13.1V416c0,0,9.8,0,13.1,0c7.3,0,13-5.8,13-13.1
					C-259.8,395.5-265.5,389.8-272.9,389.8z M-277.8,409.6h-2.6V401h2.6V409.6z M-272.1,409.6h-2.6v-6h2.6V409.6z M-266.5,409.6
					h-2.6V398h2.6V409.6z"/>
			</g>
		</g>
	</g>
</g>
</svg>
